<?xml version="1.0" encoding="UTF-8" standalone="no"?>
<!-- Created with Inkscape (http://www.inkscape.org/) -->

<svg
   xmlns:dc="http://purl.org/dc/elements/1.1/"
   xmlns:cc="http://creativecommons.org/ns#"
   xmlns:rdf="http://www.w3.org/1999/02/22-rdf-syntax-ns#"
   xmlns:svg="http://www.w3.org/2000/svg"
   xmlns="http://www.w3.org/2000/svg"
   xmlns:sodipodi="http://sodipodi.sourceforge.net/DTD/sodipodi-0.dtd"
   xmlns:inkscape="http://www.inkscape.org/namespaces/inkscape"
   width="501.87927"
   height="74.902695"
   id="svg2"
   sodipodi:version="0.32"
   inkscape:version="0.92.5 (2060ec1f9f, 2020-04-08)"
   sodipodi:docname="alice_and_bob.svg"
   version="1.0">
  <defs
     id="defs4">
    <marker
       inkscape:isstock="true"
       style="overflow:visible"
       id="marker174139"
       refX="0"
       refY="0"
       orient="auto"
       inkscape:stockid="Arrow2Mend">
      <path
         transform="scale(-0.6)"
         d="M 8.7185878,4.0337352 -2.2072895,0.01601326 8.7185884,-4.0017078 c -1.7454984,2.3720609 -1.7354408,5.6174519 -6e-7,8.035443 z"
         style="fill:#1f1f1f;fill-opacity:1;fill-rule:evenodd;stroke:#040007;stroke-width:0.625;stroke-linejoin:round;stroke-opacity:1"
         id="path174137"
         inkscape:connector-curvature="0" />
    </marker>
    <marker
       inkscape:stockid="Arrow2Mend"
       orient="auto"
       refY="0"
       refX="0"
       id="Arrow2Mend"
       style="overflow:visible"
       inkscape:isstock="true"
       inkscape:collect="always">
      <path
         id="path167046"
         style="fill:#000000;fill-opacity:1;fill-rule:evenodd;stroke:#50008d;stroke-width:0.625;stroke-linejoin:round;stroke-opacity:1"
         d="M 8.7185878,4.0337352 -2.2072895,0.01601326 8.7185884,-4.0017078 c -1.7454984,2.3720609 -1.7354408,5.6174519 -6e-7,8.035443 z"
         transform="scale(-0.6)"
         inkscape:connector-curvature="0" />
    </marker>
    <marker
       inkscape:stockid="Arrow1Mend"
       orient="auto"
       refY="0"
       refX="0"
       id="marker172312"
       style="overflow:visible"
       inkscape:isstock="true">
      <path
         id="path172310"
         d="M 0,0 5,-5 -12.5,0 5,5 Z"
         style="fill:#a05ef2;fill-opacity:1;fill-rule:evenodd;stroke:#50008d;stroke-width:1.00000003pt;stroke-opacity:1"
         transform="matrix(-0.4,0,0,-0.4,-4,0)"
         inkscape:connector-curvature="0" />
    </marker>
    <marker
       inkscape:stockid="Arrow2Lend"
       orient="auto"
       refY="0"
       refX="0"
       id="Arrow2Lend"
       style="overflow:visible"
       inkscape:isstock="true">
      <path
         id="path167040"
         style="fill:#4600ad;fill-opacity:1;fill-rule:evenodd;stroke:#50008d;stroke-width:0.625;stroke-linejoin:round;stroke-opacity:1"
         d="M 8.7185878,4.0337352 -2.2072895,0.01601326 8.7185884,-4.0017078 c -1.7454984,2.3720609 -1.7354408,5.6174519 -6e-7,8.035443 z"
         transform="matrix(-1.1,0,0,-1.1,-1.1,0)"
         inkscape:connector-curvature="0" />
    </marker>
    <marker
       inkscape:stockid="Arrow1Lend"
       orient="auto"
       refY="0"
       refX="0"
       id="Arrow1Lend"
       style="overflow:visible"
       inkscape:isstock="true">
      <path
         id="path167022"
         d="M 0,0 5,-5 -12.5,0 5,5 Z"
         style="fill:#9280ac;fill-opacity:1;fill-rule:evenodd;stroke:#50008d;stroke-width:1.00000003pt;stroke-opacity:1"
         transform="matrix(-0.8,0,0,-0.8,-10,0)"
         inkscape:connector-curvature="0" />
    </marker>
    <marker
       inkscape:stockid="Arrow1Mend"
       orient="auto"
       refY="0"
       refX="0"
       id="Arrow1Mend"
       style="overflow:visible"
       inkscape:isstock="true">
      <path
         id="path167028"
         d="M 0,0 5,-5 -12.5,0 5,5 Z"
         style="fill:#9280ac;fill-opacity:1;fill-rule:evenodd;stroke:#50008d;stroke-width:1.00000003pt;stroke-opacity:1"
         transform="matrix(-0.4,0,0,-0.4,-4,0)"
         inkscape:connector-curvature="0" />
    </marker>
    <marker
       inkscape:stockid="Arrow2Lend"
       orient="auto"
       refY="0"
       refX="0"
       id="Arrow2Lend-3"
       style="overflow:visible"
       inkscape:isstock="true">
      <path
         inkscape:connector-curvature="0"
         id="path167040-6"
         style="fill:#a05ef2;fill-opacity:1;fill-rule:evenodd;stroke:#50008d;stroke-width:0.625;stroke-linejoin:round;stroke-opacity:1"
         d="M 8.7185878,4.0337352 -2.2072895,0.01601326 8.7185884,-4.0017078 c -1.7454984,2.3720609 -1.7354408,5.6174519 -6e-7,8.035443 z"
         transform="matrix(-1.1,0,0,-1.1,-1.1,0)" />
    </marker>
    <marker
       inkscape:stockid="Arrow2Lend"
       orient="auto"
       refY="0"
       refX="0"
       id="Arrow2Lend-3-3"
       style="overflow:visible"
       inkscape:isstock="true">
      <path
         inkscape:connector-curvature="0"
         id="path167040-6-5"
         style="fill:#a05ef2;fill-opacity:1;fill-rule:evenodd;stroke:#50008d;stroke-width:0.625;stroke-linejoin:round;stroke-opacity:1"
         d="M 8.7185878,4.0337352 -2.2072895,0.01601326 8.7185884,-4.0017078 c -1.7454984,2.3720609 -1.7354408,5.6174519 -6e-7,8.035443 z"
         transform="matrix(-1.1,0,0,-1.1,-1.1,0)" />
    </marker>
    <marker
       inkscape:stockid="Arrow2Mend"
       orient="auto"
       refY="0"
       refX="0"
       id="Arrow2Mend-7"
       style="overflow:visible"
       inkscape:isstock="true">
      <path
         inkscape:connector-curvature="0"
         id="path167046-0"
         style="fill:#000000;fill-opacity:1;fill-rule:evenodd;stroke:#6100ab;stroke-width:0.625;stroke-linejoin:round;stroke-opacity:1"
         d="M 8.7185878,4.0337352 -2.2072895,0.01601326 8.7185884,-4.0017078 c -1.7454984,2.3720609 -1.7354408,5.6174519 -6e-7,8.035443 z"
         transform="scale(-0.6)" />
    </marker>
    <marker
       inkscape:isstock="true"
       style="overflow:visible"
       id="marker174139-3"
       refX="0"
       refY="0"
       orient="auto"
       inkscape:stockid="Arrow2Mend">
      <path
         inkscape:connector-curvature="0"
         transform="scale(-0.6)"
         d="M 8.7185878,4.0337352 -2.2072895,0.01601326 8.7185884,-4.0017078 c -1.7454984,2.3720609 -1.7354408,5.6174519 -6e-7,8.035443 z"
         style="fill:#550b83;fill-opacity:1;fill-rule:evenodd;stroke:#550b83;stroke-width:0.625;stroke-linejoin:round;stroke-opacity:1"
         id="path174137-6" />
    </marker>
    <marker
       inkscape:isstock="true"
       style="overflow:visible"
       id="marker174139-3-6"
       refX="0"
       refY="0"
       orient="auto"
       inkscape:stockid="Arrow2Mend">
      <path
         inkscape:connector-curvature="0"
         transform="scale(-0.6)"
         d="M 8.7185878,4.0337352 -2.2072895,0.01601326 8.7185884,-4.0017078 c -1.7454984,2.3720609 -1.7354408,5.6174519 -6e-7,8.035443 z"
         style="fill:#550b83;fill-opacity:1;fill-rule:evenodd;stroke:#550b83;stroke-width:0.625;stroke-linejoin:round;stroke-opacity:1"
         id="path174137-6-2" />
    </marker>
    <marker
       inkscape:isstock="true"
       style="overflow:visible"
       id="marker174139-1"
       refX="0"
       refY="0"
       orient="auto"
       inkscape:stockid="Arrow2Mend">
      <path
         inkscape:connector-curvature="0"
         transform="scale(-0.6)"
         d="M 8.7185878,4.0337352 -2.2072895,0.01601326 8.7185884,-4.0017078 c -1.7454984,2.3720609 -1.7354408,5.6174519 -6e-7,8.035443 z"
         style="fill:#1f1f1f;fill-opacity:1;fill-rule:evenodd;stroke:#040007;stroke-width:0.625;stroke-linejoin:round;stroke-opacity:1"
         id="path174137-8" />
    </marker>
    <marker
       inkscape:isstock="true"
       style="overflow:visible"
       id="marker174139-1-9"
       refX="0"
       refY="0"
       orient="auto"
       inkscape:stockid="Arrow2Mend">
      <path
         inkscape:connector-curvature="0"
         transform="scale(-0.6)"
         d="M 8.7185878,4.0337352 -2.2072895,0.01601326 8.7185884,-4.0017078 c -1.7454984,2.3720609 -1.7354408,5.6174519 -6e-7,8.035443 z"
         style="fill:#1f1f1f;fill-opacity:1;fill-rule:evenodd;stroke:#040007;stroke-width:0.625;stroke-linejoin:round;stroke-opacity:1"
         id="path174137-8-2" />
    </marker>
    <marker
       inkscape:isstock="true"
       style="overflow:visible"
       id="marker174139-1-9-2"
       refX="0"
       refY="0"
       orient="auto"
       inkscape:stockid="Arrow2Mend">
      <path
         inkscape:connector-curvature="0"
         transform="scale(-0.6)"
         d="M 8.7185878,4.0337352 -2.2072895,0.01601326 8.7185884,-4.0017078 c -1.7454984,2.3720609 -1.7354408,5.6174519 -6e-7,8.035443 z"
         style="fill:#1f1f1f;fill-opacity:1;fill-rule:evenodd;stroke:#040007;stroke-width:0.625;stroke-linejoin:round;stroke-opacity:1"
         id="path174137-8-2-2" />
    </marker>
    <marker
       inkscape:isstock="true"
       style="overflow:visible"
       id="marker174139-1-8"
       refX="0"
       refY="0"
       orient="auto"
       inkscape:stockid="Arrow2Mend">
      <path
         inkscape:connector-curvature="0"
         transform="scale(-0.6)"
         d="M 8.7185878,4.0337352 -2.2072895,0.01601326 8.7185884,-4.0017078 c -1.7454984,2.3720609 -1.7354408,5.6174519 -6e-7,8.035443 z"
         style="fill:#1f1f1f;fill-opacity:1;fill-rule:evenodd;stroke:#040007;stroke-width:0.625;stroke-linejoin:round;stroke-opacity:1"
         id="path174137-8-9" />
    </marker>
    <marker
       inkscape:isstock="true"
       style="overflow:visible"
       id="marker174139-7"
       refX="0"
       refY="0"
       orient="auto"
       inkscape:stockid="Arrow2Mend">
      <path
         inkscape:connector-curvature="0"
         transform="scale(-0.6)"
         d="M 8.7185878,4.0337352 -2.2072895,0.01601326 8.7185884,-4.0017078 c -1.7454984,2.3720609 -1.7354408,5.6174519 -6e-7,8.035443 z"
         style="fill:#1f1f1f;fill-opacity:1;fill-rule:evenodd;stroke:#040007;stroke-width:0.625;stroke-linejoin:round;stroke-opacity:1"
         id="path174137-3" />
    </marker>
  </defs>
  <sodipodi:namedview
     id="base"
     pagecolor="#ffffff"
     bordercolor="#666666"
     borderopacity="1.0"
     inkscape:pageopacity="0.0"
     inkscape:pageshadow="2"
     inkscape:zoom="2.7119792"
     inkscape:cx="224.28348"
     inkscape:cy="-20.614367"
     inkscape:document-units="mm"
     inkscape:current-layer="layer1"
     inkscape:window-width="1848"
     inkscape:window-height="1129"
     inkscape:window-x="72"
     inkscape:window-y="34"
     width="12.8cm"
     height="9.6cm"
     units="cm"
     showgrid="false"
     grid_units="mm"
     inkscape:object-paths="false"
     inkscape:grid-points="true"
     inkscape:grid-bbox="true"
     inkscape:guide-points="true"
     showguides="true"
     inkscape:guide-bbox="true"
     inkscape:window-maximized="1">
    <sodipodi:guide
       orientation="vertical"
       position="73.938045,35.245242"
       id="guide3573"
       inkscape:locked="false" />
    <sodipodi:guide
       orientation="horizontal"
       position="18.99662,-122.59947"
       id="guide3579"
       inkscape:locked="false" />
    <sodipodi:guide
       orientation="horizontal"
       position="18.99662,-109.61636"
       id="guide3886"
       inkscape:locked="false" />
    <sodipodi:guide
       orientation="horizontal"
       position="18.99662,151.9933"
       id="guide3988"
       inkscape:locked="false" />
    <sodipodi:guide
       orientation="horizontal"
       position="18.99662,169.5205"
       id="guide4081"
       inkscape:locked="false" />
    <inkscape:grid
       id="GridFromPre046Settings"
       type="xygrid"
       originx="18.99662"
       originy="-133.63511"
       spacingx="2mm"
       spacingy="2mm"
       color="#3f3fff"
       empcolor="#3f3fff"
       opacity="0.15"
       empopacity="0.38"
       empspacing="5" />
  </sodipodi:namedview>
  <metadata
     id="metadata7">
    <rdf:RDF>
      <cc:Work
         rdf:about="">
        <dc:format>image/svg+xml</dc:format>
        <dc:type
           rdf:resource="http://purl.org/dc/dcmitype/StillImage" />
        <dc:title></dc:title>
      </cc:Work>
    </rdf:RDF>
  </metadata>
  <g
     inkscape:label="Layer 1"
     inkscape:groupmode="layer"
     id="layer1"
     transform="translate(18.99662,-131.61967)">
    <g
       transform="matrix(0.54054316,0,0,0.59033341,8.9937381,-103.55663)"
       id="g166990">
      <path
         id="path166968"
         d="m 434.88091,512.2 c -1.35645,0 -2.65754,-0.5281 -3.46034,-1.45228 l -15.44696,-17.93346 -40.25067,18.92365 c -1.52254,0.70414 -3.43265,0.59411 -4.78911,-0.30806 -1.35645,-0.90217 -1.85474,-2.37646 -1.2734,-3.69671 l 14.92098,-32.87434 -25.71724,-6.02916 c -1.7717,-0.41808 -2.98974,-1.71633 -2.98974,-3.19062 0,-1.47428 1.21804,-2.77253 2.98974,-3.19061 l 26.2709,-6.13918 -14.28428,-52.74417 c -0.41525,-1.49629 0.52596,-3.01459 2.2423,-3.67471 1.71632,-0.68213 3.79253,-0.30806 5.03825,0.85816 l 38.72812,36.70308 14.56111,-16.87725 c 1.05194,-1.21023 2.98973,-1.73834 4.73374,-1.27625 1.77169,0.46209 2.93437,1.78235 2.879,3.25663 l -0.66438,19.34173 34.02206,-13.24655 c 1.24572,-0.4841 2.74059,-0.55011 3.95863,0 2.49144,1.14422 2.85132,3.60869 1.16267,5.12698 l -27.15674,24.53473 26.18784,17.6254 c 1.24573,0.83616 1.7717,2.15642 1.32878,3.41066 -0.41525,1.25424 -1.71634,2.17842 -3.32193,2.39846 l -36.29204,5.08298 0.74743,21.47614 c 0.0554,0.19804 0.0554,0.37407 0.0554,0.57211 0,1.82635 -1.85474,3.32264 -4.18008,3.32264 0.0277,0 0,0 0,0 z m -55.36544,-47.63919 c -1.38413,0.33007 -1.38413,1.87037 0,2.17843 l 11.68211,2.72852 c 1.10731,0.26405 2.02084,0.88017 2.54681,1.69433 0.52598,0.81416 0.58134,1.76034 0.19378,2.64051 l -11.10077,24.49072 c -0.4706,1.0122 0.94121,1.93637 2.10388,1.38626 l 30.14648,-14.17072 c 1.88243,-0.88017 4.31851,-0.46209 5.59191,0.99018 l 7.94494,9.21978 c 0.49829,0.57211 1.63328,0.28606 1.6056,-0.41808 l -0.38756,-11.17816 c -0.0554,-1.65031 1.41182,-3.08059 3.46034,-3.36664 l 26.82455,-3.76272 c 1.68865,-0.24205 2.2423,-1.91438 0.94122,-2.79454 l -19.3779,-13.02652 c -0.85817,-0.57211 -1.38414,-1.40826 -1.46719,-2.28844 -0.0831,-0.88017 0.27683,-1.76034 1.02426,-2.44247 l 13.67526,-12.34438 c 0.52598,-0.48409 -0.16609,-1.21023 -0.88584,-0.92418 l -18.18755,7.08537 c -1.30109,0.5061 -2.879,0.44008 -4.09704,-0.19804 -1.24573,-0.63812 -1.96547,-1.71633 -1.91011,-2.88256 l 0.35988,-10.408 c 0.0277,-0.92418 -1.46719,-1.32025 -2.13157,-0.55011 l -7.39129,8.58166 c -0.74743,0.85816 -1.93779,1.38626 -3.23888,1.45228 -1.2734,0.044 -2.57449,-0.39608 -3.40497,-1.18823 l -29.23295,-27.65933 c -0.58133,-0.55011 -1.68864,-0.11002 -1.49487,0.59411 l 10.79627,39.9377 c 0.4706,1.69433 -0.8028,3.38865 -2.90669,3.89475 z"
         inkscape:connector-curvature="0"
         style="fill:#8d5fd3;stroke:#000000;stroke-width:1.41620493;stroke-miterlimit:4;stroke-dasharray:none;stroke-opacity:1" />
      <path
         id="path166970"
         d="m 433.27531,480.75594 26.82455,-3.76272 c 1.68865,-0.24205 2.2423,-1.91438 0.94121,-2.79454 l -19.3779,-13.02652 c -0.85816,-0.57211 -1.38414,-1.40826 -1.46718,-2.28844 -0.0831,-0.88017 0.27683,-1.76034 1.02426,-2.44247 l 13.67526,-12.34438 c 0.52597,-0.48409 -0.16609,-1.21023 -0.88584,-0.92418 l -18.18755,7.08537 c -1.30109,0.5061 -2.879,0.44008 -4.09705,-0.19804 -1.24572,-0.63812 -1.96547,-1.71633 -1.9101,-2.88256 l 0.35987,-10.408 c 0.0277,-0.92418 -1.46718,-1.32025 -2.13156,-0.55011 l -7.39129,8.58166 c -0.74743,0.85816 -1.93779,1.38626 -3.23888,1.45228 -1.2734,0.044 -2.57449,-0.39608 -3.40497,-1.18823 l -29.20527,-27.65933 c -0.58133,-0.55011 -1.68864,-0.11002 -1.49487,0.59411 l 10.79627,39.9377 c 0.4706,1.69433 -0.8028,3.38865 -2.90669,3.89475 l -11.68211,2.72852 c -1.38413,0.33007 -1.38413,1.87037 0,2.17843 l 11.68211,2.72852 c 1.10731,0.26405 2.02084,0.88017 2.54681,1.69433 0.52598,0.81416 0.58134,1.76034 0.19378,2.64051 l -11.10077,24.49072 c -0.4706,1.0122 0.94121,1.93637 2.10388,1.38626 l 30.14648,-14.17072 c 1.88243,-0.88017 4.31851,-0.46209 5.59191,0.99018 l 7.94494,9.21978 c 0.49829,0.57211 1.63328,0.28606 1.6056,-0.41808 l -0.38756,-11.17816 c -0.0831,-1.65031 1.38413,-3.08059 3.43266,-3.36664 z"
         inkscape:connector-curvature="0"
         style="fill:#ccaaff;stroke:#070707;stroke-width:1.41620493;stroke-miterlimit:4;stroke-dasharray:none;stroke-opacity:1" />
      <path
         id="path166972"
         d="m 416.22276,475.73897 -13.70295,6.44724 c -0.96889,0.46209 -2.13157,-0.30806 -1.74401,-1.14422 l 5.03825,-11.11214 c 0.24915,-0.5281 -0.13841,-1.10021 -0.8028,-1.25424 l -9.13529,-2.13441 c -0.49829,-0.11002 -0.49829,-0.68213 0,-0.79215 l 9.35676,-2.17842 c 0.58133,-0.13203 0.94121,-0.59412 0.85817,-1.07821 l -3.04511,-14.12672 c -0.19377,-0.92418 1.19036,-1.49629 2.04852,-0.83617 l 11.10077,8.69168 c 0.52597,0.41808 1.41182,0.35207 1.85474,-0.13203 l 5.25972,-6.20519 c 0.30451,-0.33007 0.96889,-0.17604 0.94121,0.24204 l -0.24914,7.01936 c -0.0277,0.72614 0.91352,1.21023 1.74401,0.88017 l 12.12503,-4.70891 c 0.49829,-0.19804 0.99658,0.30806 0.60902,0.63812 l -9.52285,8.60366 c -0.44293,0.39608 -0.38756,1.0122 0.13841,1.36426 l 8.94151,6.02917 c 0.77512,0.5281 0.44293,1.54029 -0.58133,1.67232 l -12.4849,1.73833 c -0.58134,0.088 -1.02427,0.5061 -0.99658,0.96819 l 0.27682,7.7675 c 0.0277,0.41808 -0.66438,0.59411 -0.94121,0.24204 l -5.48118,-6.35922 c -0.35988,-0.39608 -1.05194,-0.5061 -1.60559,-0.24205 z"
         inkscape:connector-curvature="0"
         style="fill:#ffe680;stroke:#000000;stroke-width:1.41620493;stroke-miterlimit:4;stroke-dasharray:none;stroke-opacity:1" />
    </g>
    <path
       inkscape:connector-curvature="0"
       id="path167017-7-6"
       d="m 189.86627,171.40056 -86.43758,-0.15842"
       style="fill:#000000;fill-opacity:1;stroke:#50008d;stroke-width:1.36399996;stroke-linecap:butt;stroke-linejoin:miter;stroke-miterlimit:4;stroke-dasharray:0.682, 0.682;stroke-dashoffset:0;stroke-opacity:1;marker-end:url(#Arrow2Mend)" />
    <ellipse
       ry="5.8920741"
       rx="5.8835812"
       cy="171.32433"
       cx="154.94057"
       id="path168229"
       style="opacity:0.98000004;fill:#d6baff;fill-opacity:1;fill-rule:nonzero;stroke:#08000e;stroke-width:1.16611326;stroke-linecap:square;stroke-linejoin:miter;stroke-miterlimit:4;stroke-dasharray:0.11661132, 0.11661132;stroke-dashoffset:0;stroke-opacity:1" />
    <flowRoot
       transform="translate(-143.80215,30.288054)"
       style="font-style:normal;font-weight:normal;font-size:10.66666698px;line-height:1.25;font-family:sans-serif;letter-spacing:0px;word-spacing:0px;fill:#000000;fill-opacity:1;stroke:none"
       id="flowRoot172230"
       xml:space="preserve"><flowRegion
         id="flowRegion172232"><rect
           y="139.93469"
           x="126.84464"
           height="16.224314"
           width="60.841175"
           id="rect172234" /></flowRegion><flowPara
         id="flowPara172236">Alice</flowPara></flowRoot>    <flowRoot
       transform="translate(169.49838,39.155054)"
       style="font-style:normal;font-weight:normal;font-size:10.66666698px;line-height:1.25;font-family:sans-serif;letter-spacing:0px;word-spacing:0px;fill:#000000;fill-opacity:1;stroke:none"
       id="flowRoot172230-2"
       xml:space="preserve"><flowRegion
         id="flowRegion172232-9"><rect
           y="139.93469"
           x="126.84464"
           height="16.224314"
           width="60.841175"
           id="rect172234-1" /></flowRegion><flowPara
         id="flowPara172236-2">Particle 2</flowPara></flowRoot>    <path
       inkscape:connector-curvature="0"
       id="path167017-7-6-9"
       d="m 281.711,171.37432 86.43766,-0.10125"
       style="fill:#000000;fill-opacity:1;stroke:#6100ab;stroke-width:1.36399996;stroke-linecap:butt;stroke-linejoin:miter;stroke-miterlimit:4;stroke-dasharray:0.682, 0.682;stroke-dashoffset:0;stroke-opacity:1;marker-end:url(#Arrow2Mend-7)" />
    <ellipse
       ry="5.8920741"
       rx="5.8835812"
       cy="171.32692"
       cx="319.5824"
       id="path168229-5"
       style="opacity:0.98000004;fill:#fff9ba;fill-opacity:1;fill-rule:nonzero;stroke:#030004;stroke-width:1.16611326;stroke-linecap:square;stroke-linejoin:miter;stroke-miterlimit:4;stroke-dasharray:0.11661132, 0.11661132;stroke-dashoffset:0;stroke-opacity:1" />
    <path
       inkscape:connector-curvature="0"
       id="path174129"
       d="m 40.845894,186.57962 v -52.9134"
       style="fill:#1f1f1f;fill-opacity:1;stroke:#040007;stroke-width:1.30000007;stroke-linecap:butt;stroke-linejoin:miter;stroke-miterlimit:4;stroke-dasharray:none;stroke-opacity:1;marker-end:url(#marker174139)" />
    <path
       inkscape:connector-curvature="0"
       id="path174129-7"
       d="m 22.073565,170.59246 52.909625,0.6333"
       style="fill:#1f1f1f;fill-opacity:1;stroke:#040007;stroke-width:1.30000007;stroke-linecap:butt;stroke-linejoin:miter;stroke-miterlimit:4;stroke-dasharray:none;stroke-opacity:1;marker-end:url(#marker174139-1)" />
    <path
       inkscape:connector-curvature="0"
       id="path174129-7-0"
       d="M 54.941425,158.85475 14.584269,193.07654"
       style="fill:#1f1f1f;fill-opacity:1;stroke:#040007;stroke-width:1.30000007;stroke-linecap:butt;stroke-linejoin:miter;stroke-miterlimit:4;stroke-dasharray:none;stroke-opacity:1;marker-end:url(#marker174139-1-9)" />
    <g
       transform="matrix(0.49670397,0,0,0.55668404,-77.557978,-27.770638)"
       id="g185872">
      <g
         id="g185843"
         transform="matrix(0.94372106,0,0,0.89817556,117.89992,290.25941)">
	<path
   id="path185825"
   d="M 16,32 V 16 C 16,8.268 22.268,2 30,2 h 4 c 7.732,0 14,6.268 14,14 v 16 c 0,2.806 0.382,5.519 1.062,8.111 C 46.291,39.049 43.353,38.223 40.264,37.65 43.508,34.141 46,28.695 46,22 c 0,-0.435 0,-0.754 0,-1 0,-4.418 -3.582,-8 -8,-8 h -4 c -2.209,0 -4,-1.791 -4,-4 0,-0.553 -0.447,-1 -1,-1 -0.553,0 -1,0.447 -1,1 0,2.209 -1.791,4 -4,4 -3.313,0 -6,2.687 -6,6 v 1 1 c 0,0.246 0,0.565 0,1 0,6.719 2.509,12.181 5.77,15.689 -3.2,0.605 -6.121,1.425 -8.838,2.443 C 15.615,37.534 16,34.813 16,32 Z"
   inkscape:connector-curvature="0"
   style="fill:#22002b" />

	<g
   id="g185831">
		<path
   id="path185827"
   d="m 32,40 c 4.531,0 12,-6 12,-18 0,-0.5 0,-0.812 0,-1 0,-3.313 -2.687,-6 -6,-6 H 34 C 31.912,15 30.074,13.932 29,12.313 27.926,13.932 26.088,15 24,15 c -2.209,0 -4,1.791 -4,4 v 1 1 c 0,0.188 0,0.5 0,1 0,12 7.469,18 12,18 z"
   inkscape:connector-curvature="0"
   style="fill:#f9ebb2" />

		<path
   id="path185829"
   d="M 38.323,39.439 C 36.24,41.084 34.01,42 32,42 c -2.01,0 -4.24,-0.916 -6.323,-2.561 -2.743,0.378 -5.399,1.018 -7.966,1.857 2.469,2.469 13.319,13.319 13.704,13.704 0.435,0.435 0.753,0.417 1.183,-0.013 0.381,-0.381 11.224,-11.224 13.691,-13.691 -2.566,-0.839 -5.223,-1.479 -7.966,-1.857 z"
   inkscape:connector-curvature="0"
   style="fill:#f9ebb2" />

	</g>

	<path
   id="path185833"
   d="m 62,60 c 0,1.104 -0.896,2 -2,2 H 4 C 2.896,62 2,61.104 2,60 V 52 C 2,50.896 2.447,49.896 3.172,49.172 L 3.168,49.168 c 3.716,-2.994 7.918,-5.401 12.453,-7.133 l 14.172,14.172 c 1.5,1.5 2.914,1.5 4.414,0 L 48.379,42.035 c 4.535,1.731 8.737,4.139 12.453,7.133 l -0.004,0.004 C 61.553,49.896 62,50.896 62,52 Z"
   inkscape:connector-curvature="0"
   style="fill:#b380ff" />

	<g
   id="g185841">
		<path
   id="path185835"
   d="m 62.242,47.758 0.014,-0.014 C 59.017,45.11 55.391,42.87 51.417,41.1 50.502,38.229 50,35.175 50,32 V 16 C 50,7.163 42.837,0 34,0 H 30 C 21.163,0 14,7.163 14,16 v 16 c 0,3.173 -0.501,6.226 -1.415,9.096 -3.979,1.745 -7.526,3.953 -10.841,6.648 l 0.014,0.014 C 0.672,48.844 0,50.344 0,52 v 8 c 0,2.211 1.789,4 4,4 h 56 c 2.211,0 4,-1.789 4,-4 v -8 c 0,-1.656 -0.672,-3.156 -1.758,-4.242 z M 16,32 V 16 C 16,8.268 22.268,2 30,2 h 4 c 7.732,0 14,6.268 14,14 v 16 c 0,2.806 0.382,5.519 1.062,8.111 C 46.291,39.049 43.353,38.223 40.264,37.65 43.508,34.141 46,28.695 46,22 c 0,-0.435 0,-0.754 0,-1 0,-4.418 -3.582,-8 -8,-8 h -4 c -2.209,0 -4,-1.791 -4,-4 0,-0.553 -0.447,-1 -1,-1 -0.553,0 -1,0.447 -1,1 0,2.209 -1.791,4 -4,4 -3.313,0 -6,2.687 -6,6 0,0 0,2.565 0,3 0,6.719 2.509,12.181 5.77,15.689 -3.2,0.605 -6.121,1.425 -8.838,2.443 C 15.615,37.534 16,34.813 16,32 Z m 9.677,7.439 C 27.76,41.084 29.99,42 32,42 c 2.01,0 4.24,-0.916 6.323,-2.561 2.743,0.378 5.399,1.018 7.966,1.857 C 43.821,43.764 32.978,54.607 32.598,54.987 32.168,55.417 31.85,55.434 31.415,55 31.03,54.616 20.18,43.766 17.711,41.297 c 2.566,-0.84 5.223,-1.48 7.966,-1.858 z M 20,22 c 0,-0.5 0,-3 0,-3 0,-2.209 1.791,-4 4,-4 2.088,0 3.926,-1.068 5,-2.687 1.074,1.619 2.912,2.687 5,2.687 h 4 c 3.313,0 6,2.687 6,6 0,0.188 0,0.5 0,1 0,12 -7.469,18 -12,18 -4.531,0 -12,-6 -12,-18 z m 42,38 c 0,1.104 -0.896,2 -2,2 H 4 C 2.896,62 2,61.104 2,60 V 52 C 2,50.896 2.447,49.896 3.172,49.172 L 3.168,49.168 c 3.716,-2.994 7.918,-5.401 12.453,-7.133 l 14.172,14.172 c 1.5,1.5 2.914,1.5 4.414,0 L 48.379,42.035 c 4.535,1.731 8.737,4.139 12.453,7.133 l -0.004,0.004 C 61.553,49.896 62,50.896 62,52 Z"
   inkscape:connector-curvature="0"
   style="fill:#000000" />

		<path
   id="path185837"
   d="m 26.998,20 c -1.691,0 -2.618,0.983 -2.9,1.564 -0.233,0.482 -0.034,1.045 0.439,1.298 0.475,0.255 1.073,0.068 1.345,-0.396 C 25.91,22.419 26.18,22 26.998,22 c 0.808,0 1.096,0.436 1.111,0.458 0.178,0.345 0.528,0.542 0.89,0.542 0.154,0 0.311,-0.035 0.457,-0.111 0.491,-0.253 0.684,-0.856 0.431,-1.347 C 29.592,20.969 28.651,20 26.998,20 Z"
   inkscape:connector-curvature="0"
   style="fill:#394240" />

		<path
   id="path185839"
   d="m 34.539,22.862 c 0.475,0.255 1.073,0.068 1.345,-0.396 C 35.912,22.419 36.182,22 37,22 c 0.808,0 1.096,0.436 1.111,0.458 0.178,0.345 0.528,0.542 0.89,0.542 0.154,0 0.311,-0.035 0.457,-0.111 0.491,-0.253 0.684,-0.856 0.431,-1.347 C 39.594,20.969 38.653,20 37,20 c -1.691,0 -2.618,0.983 -2.9,1.564 -0.234,0.483 -0.035,1.045 0.439,1.298 z"
   inkscape:connector-curvature="0"
   style="fill:#394240" />

	</g>

</g>
    </g>
    <flowRoot
       transform="translate(3.9366414,39.155071)"
       style="font-style:normal;font-weight:normal;font-size:10.66666698px;line-height:1.25;font-family:sans-serif;letter-spacing:0px;word-spacing:0px;fill:#000000;fill-opacity:1;stroke:none"
       id="flowRoot172230-23"
       xml:space="preserve"><flowRegion
         id="flowRegion172232-7"><rect
           y="139.93469"
           x="126.84464"
           height="16.224314"
           width="60.841175"
           id="rect172234-5" /></flowRegion><flowPara
         id="flowPara172236-9">Particle 1</flowPara></flowRoot>    <flowRoot
       transform="matrix(1.000823,0,0,1,330.64727,30.288054)"
       style="font-style:normal;font-weight:normal;font-size:10.66666698px;line-height:1.25;font-family:sans-serif;letter-spacing:0px;word-spacing:0px;fill:#000000;fill-opacity:1;stroke:none"
       id="flowRoot172230-6"
       xml:space="preserve"><flowRegion
         id="flowRegion172232-1"><rect
           y="139.93469"
           x="126.84464"
           height="16.224314"
           width="60.841175"
           id="rect172234-2" /></flowRegion><flowPara
         id="flowPara172236-93">Bob</flowPara></flowRoot>    <path
       inkscape:connector-curvature="0"
       id="path174129-1"
       d="M 410.3113,188.85174 V 135.93832"
       style="fill:#1f1f1f;fill-opacity:1;stroke:#040007;stroke-width:1.30000007;stroke-linecap:butt;stroke-linejoin:miter;stroke-miterlimit:4;stroke-dasharray:none;stroke-opacity:1;marker-end:url(#marker174139-7)" />
    <path
       inkscape:connector-curvature="0"
       id="path174129-7-9"
       d="m 391.53897,172.86458 52.90963,0.6333"
       style="fill:#1f1f1f;fill-opacity:1;stroke:#040007;stroke-width:1.30000007;stroke-linecap:butt;stroke-linejoin:miter;stroke-miterlimit:4;stroke-dasharray:none;stroke-opacity:1;marker-end:url(#marker174139-1-8)" />
    <path
       inkscape:connector-curvature="0"
       id="path174129-7-0-4"
       d="m 424.40683,161.12687 -40.35715,34.22179"
       style="fill:#1f1f1f;fill-opacity:1;stroke:#040007;stroke-width:1.30000007;stroke-linecap:butt;stroke-linejoin:miter;stroke-miterlimit:4;stroke-dasharray:none;stroke-opacity:1;marker-end:url(#marker174139-1-9-2)" />
    <g
       id="g186294"
       transform="matrix(0.46875,0,0,0.5,452.88266,133.81214)">
	<path
   id="path186278"
   d="M 18,12 C 18,6.478 22.478,2 28,2 h 8 c 5.522,0 10,4.478 10,10 v 7 c 0,-3.313 -2.687,-6 -6,-6 h -6 c -2.209,0 -4,-1.791 -4,-4 0,-0.553 -0.447,-1 -1,-1 -0.553,0 -1,0.447 -1,1 0,2.209 -1.791,4 -4,4 -3.313,0 -6,2.687 -6,6 z"
   inkscape:connector-curvature="0"
   style="fill:#0b1728" />

	<path
   id="path186280"
   d="m 62,60 c 0,1.104 -0.896,2 -2,2 H 4 C 2.896,62 2,61.104 2,60 V 52 C 2,50.896 2.447,49.896 3.172,49.172 L 3.168,49.168 c 4.148,-3.343 8.896,-5.964 14.046,-7.714 3.655,4.013 8.903,6.546 14.759,6.546 5.862,0 11.115,-2.538 14.771,-6.56 5.167,1.75 9.929,4.376 14.089,7.728 l -0.004,0.004 C 61.553,49.896 62,50.896 62,52 Z"
   inkscape:connector-curvature="0"
   style="fill:#b380ff" />

	<g
   id="g186286">
		<path
   id="path186282"
   d="m 32,42 c -2.853,0 -5.502,-0.857 -7.715,-2.322 -1.675,0.283 -3.325,0.638 -4.934,1.097 3.251,3.214 7.69,5.225 12.622,5.225 4.938,0 9.383,-2.017 12.634,-5.238 C 43.012,40.308 41.376,39.959 39.715,39.678 37.502,41.143 34.853,42 32,42 Z"
   inkscape:connector-curvature="0"
   style="fill:#f9ebb2" />

		<path
   id="path186284"
   d="m 46,22 h -1 c -0.553,0 -1,-0.447 -1,-1 v -1 -1 c 0,-2.209 -1.791,-4 -4,-4 H 34 C 31.912,15 30.074,13.932 29,12.313 27.926,13.932 26.088,15 24,15 c -2.209,0 -4,1.791 -4,4 v 1 1 c 0,0.553 -0.447,1 -1,1 h -1 c -0.553,0 -1,0.447 -1,1 v 2 c 0,0.553 0.447,1 1,1 h 1 c 0.553,0 1,0.447 1,1 v 1 c 0,6.627 5.373,12 12,12 6.627,0 12,-5.373 12,-12 v -1 c 0,-0.553 0.447,-1 1,-1 h 1 c 0.553,0 1,-0.447 1,-1 v -2 c 0,-0.553 -0.447,-1 -1,-1 z"
   inkscape:connector-curvature="0"
   style="fill:#f9ebb2" />

	</g>

	<path
   id="path186288"
   d="m 62.242,47.758 0.014,-0.014 C 56.409,42.991 49.416,39.607 41.765,38.022 44.374,35.479 46,31.932 46,28 c 1.657,0 3,-1.343 3,-3 v -2 c 0,-0.886 -0.391,-1.673 -1,-2.222 V 12 C 48,5.373 42.627,0 36,0 H 28 C 21.373,0 16,5.373 16,12 v 8.778 C 15.391,21.327 15,22.114 15,23 v 2 c 0,1.657 1.343,3 3,3 0,3.932 1.626,7.479 4.236,10.022 -7.652,1.586 -14.646,4.969 -20.492,9.722 l 0.014,0.014 C 0.672,48.844 0,50.344 0,52 v 8 c 0,2.211 1.789,4 4,4 h 56 c 2.211,0 4,-1.789 4,-4 v -8 c 0,-1.656 -0.672,-3.156 -1.758,-4.242 z M 18,12 C 18,6.478 22.478,2 28,2 h 8 c 5.522,0 10,4.478 10,10 v 7 c 0,-3.313 -2.687,-6 -6,-6 h -6 c -2.209,0 -4,-1.791 -4,-4 0,-0.553 -0.447,-1 -1,-1 -0.553,0 -1,0.447 -1,1 0,2.209 -1.791,4 -4,4 -3.313,0 -6,2.687 -6,6 z m 2,16 v -1 c 0,-0.553 -0.447,-1 -1,-1 h -1 c -0.553,0 -1,-0.447 -1,-1 v -2 c 0,-0.553 0.447,-1 1,-1 h 1 c 0.553,0 1,-0.447 1,-1 v -2 c 0,-2.209 1.791,-4 4,-4 2.088,0 3.926,-1.068 5,-2.687 1.074,1.619 2.912,2.687 5,2.687 h 6 c 2.209,0 4,1.791 4,4 v 2 c 0,0.553 0.447,1 1,1 h 1 c 0.553,0 1,0.447 1,1 v 2 c 0,0.553 -0.447,1 -1,1 h -1 c -0.553,0 -1,0.447 -1,1 v 1 C 44,34.627 38.627,40 32,40 25.373,40 20,34.627 20,28 Z m 4.285,11.678 C 26.498,41.143 29.147,42 32,42 c 2.853,0 5.502,-0.857 7.715,-2.322 1.66,0.281 3.297,0.63 4.892,1.084 C 41.355,43.983 36.911,46 31.973,46 27.041,46 22.602,43.989 19.352,40.774 20.96,40.315 22.61,39.961 24.285,39.678 Z M 62,60 c 0,1.104 -0.896,2 -2,2 H 4 C 2.896,62 2,61.104 2,60 V 52 C 2,50.896 2.447,49.896 3.172,49.172 L 3.168,49.168 c 4.148,-3.343 8.896,-5.964 14.046,-7.714 3.655,4.013 8.903,6.546 14.759,6.546 5.862,0 11.115,-2.538 14.771,-6.56 5.167,1.75 9.929,4.376 14.089,7.728 l -0.004,0.004 C 61.553,49.896 62,50.896 62,52 Z"
   inkscape:connector-curvature="0"
   style="fill:#1c2224" />

	<path
   id="path186290"
   d="m 24.537,21.862 c 0.475,0.255 1.073,0.068 1.345,-0.396 C 25.91,21.419 26.18,21 26.998,21 c 0.808,0 1.096,0.436 1.111,0.458 0.178,0.345 0.528,0.542 0.89,0.542 0.154,0 0.311,-0.035 0.457,-0.111 0.491,-0.253 0.684,-0.856 0.431,-1.347 C 29.592,19.969 28.651,19 26.998,19 c -1.691,0 -2.618,0.983 -2.9,1.564 -0.234,0.483 -0.035,1.045 0.439,1.298 z"
   inkscape:connector-curvature="0"
   style="fill:#394240" />

	<path
   id="path186292"
   d="m 34.539,21.862 c 0.475,0.255 1.073,0.068 1.345,-0.396 C 35.912,21.419 36.182,21 37,21 c 0.808,0 1.096,0.436 1.111,0.458 0.178,0.345 0.528,0.542 0.89,0.542 0.154,0 0.311,-0.035 0.457,-0.111 0.491,-0.253 0.684,-0.856 0.431,-1.347 C 39.594,19.969 38.653,19 37,19 c -1.691,0 -2.618,0.983 -2.9,1.564 -0.234,0.483 -0.035,1.045 0.439,1.298 z"
   inkscape:connector-curvature="0"
   style="fill:#394240" />

</g>
    <flowRoot
       xml:space="preserve"
       id="flowRoot186369"
       style="font-style:normal;font-weight:normal;font-size:10.66666698px;line-height:1.25;font-family:sans-serif;letter-spacing:0px;word-spacing:0px;fill:#000000;fill-opacity:1;stroke:none"
       transform="translate(-40.383214,117.32019)"><flowRegion
         id="flowRegion186371"><rect
           id="rect186373"
           width="16.401882"
           height="12.168235"
           x="68.775764"
           y="10.694951" /></flowRegion><flowPara
         id="flowPara186375">z</flowPara></flowRoot>    <flowRoot
       xml:space="preserve"
       id="flowRoot186369-2"
       style="font-style:normal;font-weight:normal;font-size:10.66666698px;line-height:1.25;font-family:sans-serif;letter-spacing:0px;word-spacing:0px;fill:#000000;fill-opacity:1;stroke:none"
       transform="translate(328.67951,117.80494)"><flowRegion
         id="flowRegion186371-0"><rect
           id="rect186373-6"
           width="16.401882"
           height="12.168235"
           x="68.775764"
           y="10.694951" /></flowRegion><flowPara
         id="flowPara186375-1">z</flowPara></flowRoot>    <flowRoot
       xml:space="preserve"
       id="flowRoot186369-5"
       style="font-style:normal;font-weight:normal;font-size:10.66666698px;line-height:1.25;font-family:sans-serif;letter-spacing:0px;word-spacing:0px;fill:#000000;fill-opacity:1;stroke:none"
       transform="translate(4.5619842,163.15928)"><flowRegion
         id="flowRegion186371-5"><rect
           id="rect186373-4"
           width="16.401882"
           height="12.168235"
           x="68.775764"
           y="10.694951" /></flowRegion><flowPara
         id="flowPara186375-7">y</flowPara></flowRoot>    <flowRoot
       xml:space="preserve"
       id="flowRoot186369-5-6"
       style="font-style:normal;font-weight:normal;font-size:10.66666698px;line-height:1.25;font-family:sans-serif;letter-spacing:0px;word-spacing:0px;fill:#000000;fill-opacity:1;stroke:none"
       transform="translate(373.67708,164.99977)"><flowRegion
         id="flowRegion186371-5-5"><rect
           id="rect186373-4-6"
           width="16.401882"
           height="12.168235"
           x="68.775764"
           y="10.694951" /></flowRegion><flowPara
         id="flowPara186375-7-9">y</flowPara></flowRoot>    <flowRoot
       xml:space="preserve"
       id="flowRoot186369-5-3"
       style="font-style:normal;font-weight:normal;font-size:10.66666698px;line-height:1.25;font-family:sans-serif;letter-spacing:0px;word-spacing:0px;fill:#000000;fill-opacity:1;stroke:none"
       transform="translate(-57.742165,183.06777)"><flowRegion
         id="flowRegion186371-5-7"><rect
           id="rect186373-4-4"
           width="16.401882"
           height="12.168235"
           x="68.775764"
           y="10.694951" /></flowRegion><flowPara
         id="flowPara186375-7-5">x</flowPara></flowRoot>    <flowRoot
       xml:space="preserve"
       id="flowRoot186369-5-3-2"
       style="font-style:normal;font-weight:normal;font-size:10.66666698px;line-height:1.25;font-family:sans-serif;letter-spacing:0px;word-spacing:0px;fill:#000000;fill-opacity:1;stroke:none"
       transform="translate(312.85674,186.38955)"><flowRegion
         id="flowRegion186371-5-7-5"><rect
           id="rect186373-4-4-4"
           width="16.401882"
           height="12.168235"
           x="68.775764"
           y="10.694951" /></flowRegion><flowPara
         id="flowPara186375-7-5-7">x</flowPara></flowRoot>  </g>
</svg>
