<?xml version="1.0" encoding="UTF-8" standalone="no"?>
<!-- Created with Inkscape (http://www.inkscape.org/) -->

<svg
   xmlns:dc="http://purl.org/dc/elements/1.1/"
   xmlns:cc="http://creativecommons.org/ns#"
   xmlns:rdf="http://www.w3.org/1999/02/22-rdf-syntax-ns#"
   xmlns:svg="http://www.w3.org/2000/svg"
   xmlns="http://www.w3.org/2000/svg"
   xmlns:sodipodi="http://sodipodi.sourceforge.net/DTD/sodipodi-0.dtd"
   xmlns:inkscape="http://www.inkscape.org/namespaces/inkscape"
   version="1.1"
   id="svg2"
   xml:space="preserve"
   width="793.70074"
   height="1122.5197"
   viewBox="0 0 793.70074 1122.5197"
   sodipodi:docname="qibocal_scheme.svg"
   inkscape:version="0.92.5 (2060ec1f9f, 2020-04-08)"><metadata
     id="metadata8"><rdf:RDF><cc:Work
         rdf:about=""><dc:format>image/svg+xml</dc:format><dc:type
           rdf:resource="http://purl.org/dc/dcmitype/StillImage" /><dc:title></dc:title></cc:Work></rdf:RDF></metadata><defs
     id="defs6"><marker
       inkscape:stockid="Arrow1Mend"
       orient="auto"
       refY="0.0"
       refX="0.0"
       id="Arrow1Mend"
       style="overflow:visible;"
       inkscape:isstock="true"><path
         id="path84507"
         d="M 0.0,0.0 L 5.0,-5.0 L -12.5,0.0 L 5.0,5.0 L 0.0,0.0 z "
         style="fill-rule:evenodd;stroke:#000000;stroke-width:1pt;stroke-opacity:1;fill:#000000;fill-opacity:1"
         transform="scale(0.4) rotate(180) translate(10,0)" /></marker><clipPath
       clipPathUnits="userSpaceOnUse"
       id="clipPath38"><path
         d="M 0,0 H 596 V 842 H 0 Z"
         id="path36"
         inkscape:connector-curvature="0" /></clipPath><clipPath
       clipPathUnits="userSpaceOnUse"
       id="clipPath56"><path
         d="M 0,0 H 596 V 842 H 0 Z"
         id="path54"
         inkscape:connector-curvature="0" /></clipPath><clipPath
       clipPathUnits="userSpaceOnUse"
       id="clipPath80"><path
         d="M 0,0 H 596 V 842 H 0 Z"
         id="path78"
         inkscape:connector-curvature="0" /></clipPath><clipPath
       clipPathUnits="userSpaceOnUse"
       id="clipPath98"><path
         d="M 0,0 H 596 V 842 H 0 Z"
         id="path96"
         inkscape:connector-curvature="0" /></clipPath><clipPath
       clipPathUnits="userSpaceOnUse"
       id="clipPath140"><path
         d="M 0,0 H 596 V 842 H 0 Z"
         id="path138"
         inkscape:connector-curvature="0" /></clipPath><clipPath
       clipPathUnits="userSpaceOnUse"
       id="clipPath160"><path
         d="M 0,0 H 596 V 842 H 0 Z"
         id="path158"
         inkscape:connector-curvature="0" /></clipPath><clipPath
       clipPathUnits="userSpaceOnUse"
       id="clipPath182"><path
         d="M 0,0 H 596 V 842 H 0 Z"
         id="path180"
         inkscape:connector-curvature="0" /></clipPath><clipPath
       clipPathUnits="userSpaceOnUse"
       id="clipPath244"><path
         d="M 0,0 H 596 V 842 H 0 Z"
         id="path242"
         inkscape:connector-curvature="0" /></clipPath><clipPath
       clipPathUnits="userSpaceOnUse"
       id="clipPath264"><path
         d="M 0,0 H 596 V 842 H 0 Z"
         id="path262"
         inkscape:connector-curvature="0" /></clipPath><clipPath
       clipPathUnits="userSpaceOnUse"
       id="clipPath284"><path
         d="M 0,0 H 596 V 842 H 0 Z"
         id="path282"
         inkscape:connector-curvature="0" /></clipPath><clipPath
       clipPathUnits="userSpaceOnUse"
       id="clipPath304"><path
         d="M 0,0 H 596 V 842 H 0 Z"
         id="path302"
         inkscape:connector-curvature="0" /></clipPath><clipPath
       clipPathUnits="userSpaceOnUse"
       id="clipPath340"><path
         d="M 0,0 H 596 V 842 H 0 Z"
         id="path338"
         inkscape:connector-curvature="0" /></clipPath><clipPath
       clipPathUnits="userSpaceOnUse"
       id="clipPath442"><path
         d="M 0,0 H 596 V 842 H 0 Z"
         id="path440"
         inkscape:connector-curvature="0" /></clipPath><clipPath
       clipPathUnits="userSpaceOnUse"
       id="clipPath518"><path
         d="M 0,0 H 596 V 842 H 0 Z"
         id="path516"
         inkscape:connector-curvature="0" /></clipPath><clipPath
       clipPathUnits="userSpaceOnUse"
       id="clipPath538"><path
         d="M 0,0 H 596 V 842 H 0 Z"
         id="path536"
         inkscape:connector-curvature="0" /></clipPath><clipPath
       clipPathUnits="userSpaceOnUse"
       id="clipPath558"><path
         d="M 0,0 H 596 V 842 H 0 Z"
         id="path556"
         inkscape:connector-curvature="0" /></clipPath></defs><sodipodi:namedview
     pagecolor="#ffffff"
     bordercolor="#666666"
     borderopacity="1"
     objecttolerance="10"
     gridtolerance="10"
     guidetolerance="10"
     inkscape:pageopacity="0"
     inkscape:pageshadow="2"
     inkscape:window-width="1848"
     inkscape:window-height="1129"
     id="namedview4"
     showgrid="false"
     inkscape:zoom="4.7572177"
     inkscape:cx="155.7288"
     inkscape:cy="544.44327"
     inkscape:window-x="72"
     inkscape:window-y="34"
     inkscape:window-maximized="1"
     inkscape:current-layer="g10" /><g
     id="g10"
     inkscape:groupmode="layer"
     inkscape:label="qibocal_scheme"
     transform="matrix(1.3333333,0,0,1.3333333,0,3.3396326e-5)"><g
       id="g14"><path
         inkscape:connector-curvature="0"
         id="path16"
         style="fill:#ffe3e3;fill-opacity:1;fill-rule:evenodd;stroke:#000000;stroke-width:0.69975001;stroke-linecap:butt;stroke-linejoin:round;stroke-miterlimit:4;stroke-dasharray:none;stroke-opacity:1"
         d="m 106.305,429.137 h 35.363 c 1.629,0 2.941,1.312 2.941,2.945 v 2.863 c 0,1.629 -1.312,2.942 -2.941,2.942 h -35.363 c -1.633,0 -2.946,-1.313 -2.946,-2.942 v -2.863 c 0,-1.633 1.313,-2.945 2.946,-2.945 z" /></g><g
       id="g18"><path
         inkscape:connector-curvature="0"
         id="path20"
         style="fill:#ffe3e3;fill-opacity:1;fill-rule:evenodd;stroke:#000000;stroke-width:0.69975001;stroke-linecap:butt;stroke-linejoin:round;stroke-miterlimit:4;stroke-dasharray:none;stroke-opacity:1"
         d="m 106.305,437.887 h 35.363 c 1.629,0 2.941,1.312 2.941,2.945 v 2.863 c 0,1.629 -1.312,2.942 -2.941,2.942 h -35.363 c -1.633,0 -2.946,-1.313 -2.946,-2.942 v -2.863 c 0,-1.633 1.313,-2.945 2.946,-2.945 z" /></g><g
       id="g22"><path
         inkscape:connector-curvature="0"
         id="path24"
         style="fill:#ffe3e3;fill-opacity:1;fill-rule:evenodd;stroke:#000000;stroke-width:0.69975001;stroke-linecap:butt;stroke-linejoin:round;stroke-miterlimit:4;stroke-dasharray:none;stroke-opacity:1"
         d="m 106.305,446.637 h 35.363 c 1.629,0 2.941,1.312 2.941,2.945 v 2.863 c 0,1.629 -1.312,2.942 -2.941,2.942 h -35.363 c -1.633,0 -2.946,-1.313 -2.946,-2.942 v -2.863 c 0,-1.633 1.313,-2.945 2.946,-2.945 z" /></g><path
       inkscape:connector-curvature="0"
       id="path26"
       style="fill:#000000;fill-opacity:1;fill-rule:evenodd;stroke:none"
       d="m 107.484,430.887 h 1.652 v 5.25 h -1.652 z" /><path
       inkscape:connector-curvature="0"
       id="path28"
       style="fill:#000000;fill-opacity:1;fill-rule:evenodd;stroke:none"
       d="m 109.961,430.887 h 1.648 v 5.25 h -1.648 z" /><path
       inkscape:connector-curvature="0"
       id="path30"
       style="fill:#000000;fill-opacity:1;fill-rule:evenodd;stroke:none"
       d="m 112.438,430.887 h 1.648 v 5.25 h -1.648 z" /><g
       id="g32"><g
         id="g34" /><g
         id="g48"><g
           style="opacity:0.98000004"
           id="g46"
           clip-path="url(#clipPath38)"><g
             id="g44"><g
               id="g42"
               transform="scale(0.942857,1)"><path
                 inkscape:connector-curvature="0"
                 id="path40"
                 style="fill:#000000;fill-opacity:1;fill-rule:nonzero;stroke:#000000;stroke-width:0.875;stroke-linecap:square;stroke-linejoin:round;stroke-miterlimit:4;stroke-dasharray:none;stroke-opacity:1"
                 d="m 143.749,433.512 c 0,0.484 -0.389,0.875 -0.874,0.875 -0.485,0 -0.874,-0.391 -0.874,-0.875 0,-0.481 0.389,-0.875 0.874,-0.875 0.485,0 0.874,0.394 0.874,0.875 z" /></g></g></g></g></g><g
       id="g50"><g
         id="g52" /><g
         id="g66"><g
           style="opacity:0.98000004"
           id="g64"
           clip-path="url(#clipPath56)"><g
             id="g62"><g
               id="g60"
               transform="scale(0.942857,1)"><path
                 inkscape:connector-curvature="0"
                 id="path58"
                 style="fill:#000000;fill-opacity:1;fill-rule:nonzero;stroke:#000000;stroke-width:0.875;stroke-linecap:square;stroke-linejoin:round;stroke-miterlimit:4;stroke-dasharray:none;stroke-opacity:1"
                 d="m 147.395,433.609 c 0,0.485 -0.389,0.875 -0.874,0.875 -0.481,0 -0.874,-0.39 -0.874,-0.875 0,-0.48 0.393,-0.875 0.874,-0.875 0.485,0 0.874,0.395 0.874,0.875 z" /></g></g></g></g></g><path
       inkscape:connector-curvature="0"
       id="path68"
       style="fill:#000000;fill-opacity:1;fill-rule:evenodd;stroke:none"
       d="m 107.484,448.387 h 1.652 v 5.25 h -1.652 z" /><path
       inkscape:connector-curvature="0"
       id="path70"
       style="fill:#000000;fill-opacity:1;fill-rule:evenodd;stroke:none"
       d="m 109.961,448.387 h 1.648 v 5.25 h -1.648 z" /><path
       inkscape:connector-curvature="0"
       id="path72"
       style="fill:#000000;fill-opacity:1;fill-rule:evenodd;stroke:none"
       d="m 112.438,448.387 h 1.648 v 5.25 h -1.648 z" /><g
       id="g74"><g
         id="g76" /><g
         id="g90"><g
           style="opacity:0.98000004"
           id="g88"
           clip-path="url(#clipPath80)"><g
             id="g86"><g
               id="g84"
               transform="scale(0.942857,1)"><path
                 inkscape:connector-curvature="0"
                 id="path82"
                 style="fill:#000000;fill-opacity:1;fill-rule:nonzero;stroke:#000000;stroke-width:0.875;stroke-linecap:square;stroke-linejoin:round;stroke-miterlimit:4;stroke-dasharray:none;stroke-opacity:1"
                 d="m 143.749,451.012 c 0,0.484 -0.389,0.875 -0.874,0.875 -0.485,0 -0.874,-0.391 -0.874,-0.875 0,-0.481 0.389,-0.875 0.874,-0.875 0.485,0 0.874,0.394 0.874,0.875 z" /></g></g></g></g></g><g
       id="g92"><g
         id="g94" /><g
         id="g108"><g
           style="opacity:0.98000004"
           id="g106"
           clip-path="url(#clipPath98)"><g
             id="g104"><g
               id="g102"
               transform="scale(0.942857,1)"><path
                 inkscape:connector-curvature="0"
                 id="path100"
                 style="fill:#000000;fill-opacity:1;fill-rule:nonzero;stroke:#000000;stroke-width:0.875;stroke-linecap:square;stroke-linejoin:round;stroke-miterlimit:4;stroke-dasharray:none;stroke-opacity:1"
                 d="m 147.395,451.109 c 0,0.485 -0.389,0.875 -0.874,0.875 -0.481,0 -0.874,-0.39 -0.874,-0.875 0,-0.48 0.393,-0.875 0.874,-0.875 0.485,0 0.874,0.395 0.874,0.875 z" /></g></g></g></g></g><g
       id="g110"><path
         inkscape:connector-curvature="0"
         id="path112"
         style="fill:none;stroke:#000000;stroke-width:0.42481601;stroke-linecap:butt;stroke-linejoin:miter;stroke-miterlimit:4;stroke-dasharray:none;stroke-opacity:1"
         d="M 115.734,433.512 H 131.41" /></g><g
       id="g114"><path
         inkscape:connector-curvature="0"
         id="path116"
         style="fill:none;stroke:#000000;stroke-width:0.42481601;stroke-linecap:butt;stroke-linejoin:miter;stroke-miterlimit:4;stroke-dasharray:none;stroke-opacity:1"
         d="M 115.734,451.012 H 131.41" /></g><g
       id="g118"
       transform="translate(-1.4188966,0.15765518)"><path
         inkscape:connector-curvature="0"
         id="path120"
         style="fill:none;stroke:#000000;stroke-width:0.22499999;stroke-linecap:butt;stroke-linejoin:miter;stroke-miterlimit:4;stroke-dasharray:none;stroke-opacity:1"
         d="m 172.297,425.402 0.062,31.602 c 0,0 0.305,4.883 -1.101,5.492 -1.406,0.613 -2.02,-0.406 -1.406,-2.238 0.609,-1.828 2.871,-1.356 3.73,-0.27 0.856,1.086 2.324,2.305 3.973,2.102" /></g><g
       id="g122"
       transform="translate(-1.4188966,0.15765518)"><path
         inkscape:connector-curvature="0"
         id="path124"
         style="fill:none;stroke:#000000;stroke-width:0.2385;stroke-linecap:butt;stroke-linejoin:miter;stroke-miterlimit:4;stroke-dasharray:none;stroke-opacity:1"
         d="m 171.191,425.477 v 29.027" /></g><g
       id="g126"
       transform="translate(-1.4188966,0.15765518)"><path
         inkscape:connector-curvature="0"
         id="path128"
         style="fill:none;stroke:#000000;stroke-width:0.44025001;stroke-linecap:butt;stroke-linejoin:miter;stroke-miterlimit:4;stroke-dasharray:none;stroke-opacity:1"
         d="M 189.293,454.504 V 425.75" /></g><g
       id="g130"
       transform="translate(-1.4188966,0.15765518)"><path
         inkscape:connector-curvature="0"
         id="path132"
         style="fill:none;stroke:#000000;stroke-width:0.43575001;stroke-linecap:butt;stroke-linejoin:miter;stroke-miterlimit:4;stroke-dasharray:none;stroke-opacity:1"
         d="m 178.898,454.504 0.122,-28.348" /></g><g
       id="g134"
       transform="translate(-1.4188966,0.15765518)"><g
         id="g136" /><g
         id="g152"><g
           style="opacity:0.98000004"
           id="g150"
           clip-path="url(#clipPath140)"><g
             id="g148"><path
               inkscape:connector-curvature="0"
               id="path142"
               style="fill:#ffffff;fill-opacity:0.14117599;fill-rule:nonzero;stroke:none"
               d="m 202.871,400.383 c 0,2.625 -8.816,4.75 -19.691,4.75 -10.875,0 -19.696,-2.125 -19.696,-4.75 0,-2.621 8.821,-4.746 19.696,-4.746 10.875,0 19.691,2.125 19.691,4.746 z" /><g
               id="g146"><path
                 inkscape:connector-curvature="0"
                 id="path144"
                 style="fill:none;stroke:#000000;stroke-width:0.68154001;stroke-linecap:square;stroke-linejoin:miter;stroke-miterlimit:4;stroke-dasharray:none;stroke-opacity:1"
                 d="m 202.871,400.383 c 0,2.625 -8.816,4.75 -19.691,4.75 -10.875,0 -19.696,-2.125 -19.696,-4.75 0,-2.621 8.821,-4.746 19.696,-4.746 10.875,0 19.691,2.125 19.691,4.746 z" /></g></g></g></g></g><g
       id="g154"
       transform="translate(-1.4188966,0.15765518)"><g
         id="g156" /><g
         id="g170"><g
           style="opacity:0.98000004"
           id="g168"
           clip-path="url(#clipPath160)"><g
             id="g166"><g
               id="g164"><path
                 inkscape:connector-curvature="0"
                 id="path162"
                 style="fill:#000000;fill-opacity:1;fill-rule:nonzero;stroke:#000000;stroke-width:0.288519;stroke-linecap:square;stroke-linejoin:miter;stroke-miterlimit:4;stroke-dasharray:none;stroke-opacity:1"
                 d="m 178.266,462.09 c 0,0.262 -0.25,0.476 -0.559,0.476 -0.305,0 -0.555,-0.214 -0.555,-0.476 0,-0.262 0.25,-0.473 0.555,-0.473 0.309,0 0.559,0.211 0.559,0.473 z" /></g></g></g></g></g><g
       id="g172"
       transform="translate(-1.4188966,0.15765518)"><path
         inkscape:connector-curvature="0"
         id="path174"
         style="fill:none;stroke:#000000;stroke-width:0.22499999;stroke-linecap:butt;stroke-linejoin:miter;stroke-miterlimit:4;stroke-dasharray:none;stroke-opacity:1"
         d="m 173.09,425.738 0.183,36.285 c 0,0 0.125,3.118 -2.503,5.016 -2.633,1.902 -6.973,-1.285 -6.973,-1.285" /></g><g
       id="g176"
       transform="translate(-1.4188966,0.15765518)"><g
         id="g178" /><g
         id="g192"><g
           style="opacity:0.98000004"
           id="g190"
           clip-path="url(#clipPath182)"><g
             id="g188"><g
               id="g186"><path
                 inkscape:connector-curvature="0"
                 id="path184"
                 style="fill:#000000;fill-opacity:1;fill-rule:nonzero;stroke:#000000;stroke-width:0.149939;stroke-linecap:square;stroke-linejoin:miter;stroke-miterlimit:4;stroke-dasharray:none;stroke-opacity:1"
                 d="m 164.18,465.719 c 0,0.242 -0.172,0.441 -0.383,0.441 -0.215,0 -0.387,-0.199 -0.387,-0.441 0,-0.242 0.172,-0.442 0.387,-0.442 0.211,0 0.383,0.2 0.383,0.442 z" /></g></g></g></g></g><g
       id="g194"
       transform="translate(-1.4188966,0.15765518)"><path
         inkscape:connector-curvature="0"
         id="path196"
         style="fill:none;stroke:#000000;stroke-width:0.2115;stroke-linecap:butt;stroke-linejoin:miter;stroke-miterlimit:4;stroke-dasharray:none;stroke-opacity:1"
         d="m 193.703,413.059 0.121,12.679" /></g><g
       id="g198"
       transform="translate(-1.4188966,0.15765518)"><path
         inkscape:connector-curvature="0"
         id="path200"
         style="fill:none;stroke:#000000;stroke-width:0.2115;stroke-linecap:butt;stroke-linejoin:miter;stroke-miterlimit:4;stroke-dasharray:none;stroke-opacity:1"
         d="m 194.254,412.652 0.058,13.157" /></g><g
       id="g202"
       transform="translate(-1.4188966,0.15765518)"><path
         inkscape:connector-curvature="0"
         id="path204"
         style="fill:none;stroke:#000000;stroke-width:0.2115;stroke-linecap:butt;stroke-linejoin:miter;stroke-miterlimit:4;stroke-dasharray:none;stroke-opacity:1"
         d="m 195.168,412.582 0.008,12.82" /></g><g
       id="g206"
       transform="translate(-1.4188966,0.15765518)"><path
         inkscape:connector-curvature="0"
         id="path208"
         style="fill:none;stroke:#000000;stroke-width:0.68154001;stroke-linecap:butt;stroke-linejoin:miter;stroke-miterlimit:4;stroke-dasharray:none;stroke-opacity:1"
         d="m 202.871,399.434 v 11.394" /></g><g
       id="g210"
       transform="translate(-1.4188966,0.15765518)"><path
         inkscape:connector-curvature="0"
         id="path212"
         style="fill:none;stroke:#000000;stroke-width:0.68154001;stroke-linecap:butt;stroke-linejoin:miter;stroke-miterlimit:4;stroke-dasharray:none;stroke-opacity:1"
         d="m 163.484,399.434 v 9.496 c 0,0 32.539,9.492 39.387,1.898" /></g><g
       id="g214"
       transform="translate(-1.4188966,0.15765518)"><path
         inkscape:connector-curvature="0"
         id="path216"
         style="fill:none;stroke:#000000;stroke-width:0.75674999;stroke-linecap:butt;stroke-linejoin:miter;stroke-miterlimit:4;stroke-dasharray:none;stroke-opacity:1"
         d="m 168.824,410.074 0.172,44.696" /></g><g
       id="g218"
       transform="translate(-1.4188966,0.15765518)"><path
         inkscape:connector-curvature="0"
         id="path220"
         style="fill:none;stroke:#000000;stroke-width:0.75674999;stroke-linecap:butt;stroke-linejoin:miter;stroke-miterlimit:4;stroke-dasharray:none;stroke-opacity:1"
         d="m 198.059,413.336 -0.176,41.434" /></g><g
       transform="matrix(1,0,-0.219929,0.975516,-1.4188966,0.15765518)"
       id="g222"><path
         inkscape:connector-curvature="0"
         id="path224"
         style="fill:#848484;fill-opacity:1;fill-rule:evenodd;stroke:#000000;stroke-width:0.311398;stroke-linecap:butt;stroke-linejoin:miter;stroke-miterlimit:4;stroke-dasharray:none;stroke-opacity:1"
         d="m 295.265,436.095 c -10e-4,0.437 -7.166,0.789 -16.002,0.789 -8.836,0 -15.999,-0.352 -16.002,-0.789 0.003,-0.432 7.168,-0.784 16.004,-0.784 8.836,0 15.999,0.352 16,0.784 z" /></g><g
       transform="matrix(1,0,-0.219929,0.975516,-1.4188966,0.15765518)"
       id="g226"><path
         inkscape:connector-curvature="0"
         id="path228"
         style="fill:#848484;fill-opacity:1;fill-rule:evenodd;stroke:#000000;stroke-width:0.311398;stroke-linecap:butt;stroke-linejoin:miter;stroke-miterlimit:4;stroke-dasharray:none;stroke-opacity:1"
         d="m 298.07,448.529 c -0.002,0.436 -7.166,0.789 -16.002,0.789 -8.836,0 -16,-0.353 -16.002,-0.789 0.003,-0.433 7.164,-0.785 16.003,-0.785 8.836,0 16,0.352 16.001,0.785 z" /></g><g
       transform="matrix(1,0,-0.219929,0.975516,-1.4188966,0.15765518)"
       id="g230"><path
         inkscape:connector-curvature="0"
         id="path232"
         style="fill:#848484;fill-opacity:1;fill-rule:evenodd;stroke:#000000;stroke-width:0.311398;stroke-linecap:butt;stroke-linejoin:miter;stroke-miterlimit:4;stroke-dasharray:none;stroke-opacity:1"
         d="m 298.803,451.312 c -0.002,0.432 -7.163,0.785 -16.003,0.785 -8.836,0 -15.999,-0.353 -15.997,-0.785 -0.002,-0.437 7.163,-0.789 15.999,-0.789 8.836,0 15.999,0.352 16.001,0.789 z" /></g><g
       transform="matrix(1,0,-0.219929,0.975516,-1.4188966,0.15765518)"
       id="g234"><path
         inkscape:connector-curvature="0"
         id="path236"
         style="fill:#848484;fill-opacity:1;fill-rule:evenodd;stroke:#000000;stroke-width:0.311398;stroke-linecap:butt;stroke-linejoin:miter;stroke-miterlimit:4;stroke-dasharray:none;stroke-opacity:1"
         d="m 299.566,454.231 c 0.002,0.432 -7.163,0.785 -15.999,0.785 -8.836,0 -16.003,-0.353 -16.001,-0.785 -10e-4,-0.433 7.164,-0.785 16,-0.785 8.84,0 16.003,0.352 16,0.785 z" /></g><g
       id="g238"
       transform="translate(-1.4188966,0.15765518)"><g
         id="g240" /><g
         id="g256"><g
           style="opacity:0.98000004"
           id="g254"
           clip-path="url(#clipPath244)"><g
             id="g252"><path
               inkscape:connector-curvature="0"
               id="path246"
               style="fill:#b3b3b3;fill-opacity:0.29353201;fill-rule:nonzero;stroke:none"
               d="m 188.488,413.234 c -0.269,-0.031 -1.207,-0.117 -2.082,-0.195 -5.176,-0.465 -13.254,-1.992 -20.301,-3.832 l -2.203,-0.574 -0.031,-3.348 -0.035,-3.347 0.672,0.449 c 1.957,1.304 7.031,2.492 12.48,2.918 10.282,0.8 21.465,-0.535 24.946,-2.985 l 0.558,-0.394 v 8.785 l -0.664,0.488 c -1.18,0.867 -2.59,1.395 -4.785,1.789 -1.16,0.207 -7.254,0.383 -8.555,0.246 z" /><g
               id="g250"><path
                 inkscape:connector-curvature="0"
                 id="path248"
                 style="fill:none;stroke:#000000;stroke-width:0.243407;stroke-linecap:square;stroke-linejoin:miter;stroke-miterlimit:4;stroke-dasharray:none;stroke-opacity:1"
                 d="m 188.488,413.234 c -0.269,-0.031 -1.207,-0.117 -2.082,-0.195 -5.176,-0.465 -13.254,-1.992 -20.301,-3.832 l -2.203,-0.574 -0.031,-3.348 -0.035,-3.347 0.672,0.449 c 1.957,1.304 7.031,2.492 12.48,2.918 10.282,0.8 21.465,-0.535 24.946,-2.985 l 0.558,-0.394 v 8.785 l -0.664,0.488 c -1.18,0.867 -2.59,1.395 -4.785,1.789 -1.16,0.207 -7.254,0.383 -8.555,0.246 z" /></g></g></g></g></g><g
       id="g258"
       transform="translate(-1.4188966,0.15765518)"><g
         id="g260" /><g
         id="g276"><g
           style="opacity:0.98000004"
           id="g274"
           clip-path="url(#clipPath264)"><g
             id="g272"><path
               inkscape:connector-curvature="0"
               id="path266"
               style="fill:#1a1a1a;fill-opacity:0.29353201;fill-rule:nonzero;stroke:none"
               d="m 186.164,412.84 c -5.863,-0.664 -12.934,-2.008 -20.012,-3.813 l -2.035,-0.519 -0.062,-3.055 c -0.032,-1.68 -0.047,-3.074 -0.032,-3.098 0.016,-0.019 0.223,0.086 0.457,0.243 1.735,1.132 6.204,2.226 11.469,2.804 2.711,0.297 10.996,0.34 13.699,0.071 6.411,-0.641 9.68,-1.446 12.633,-3.118 0.051,-0.027 0.078,1.825 0.059,4.114 l -0.031,4.164 -0.786,0.523 c -1.05,0.707 -1.875,1.039 -3.558,1.434 -1.305,0.308 -1.715,0.336 -5.746,0.387 -3.188,0.039 -4.797,0.003 -6.055,-0.137 z" /><g
               id="g270"><path
                 inkscape:connector-curvature="0"
                 id="path268"
                 style="fill:none;stroke:#000000;stroke-width:0.243407;stroke-linecap:square;stroke-linejoin:miter;stroke-miterlimit:4;stroke-dasharray:none;stroke-opacity:1"
                 d="m 186.164,412.84 c -5.863,-0.664 -12.934,-2.008 -20.012,-3.813 l -2.035,-0.519 -0.062,-3.055 c -0.032,-1.68 -0.047,-3.074 -0.032,-3.098 0.016,-0.019 0.223,0.086 0.457,0.243 1.735,1.132 6.204,2.226 11.469,2.804 2.711,0.297 10.996,0.34 13.699,0.071 6.411,-0.641 9.68,-1.446 12.633,-3.118 0.051,-0.027 0.078,1.825 0.059,4.114 l -0.031,4.164 -0.786,0.523 c -1.05,0.707 -1.875,1.039 -3.558,1.434 -1.305,0.308 -1.715,0.336 -5.746,0.387 -3.188,0.039 -4.797,0.003 -6.055,-0.137 z" /></g></g></g></g></g><g
       id="g278"
       transform="translate(-1.4188966,0.15765518)"><g
         id="g280" /><g
         id="g296"><g
           style="opacity:0.98000004"
           id="g294"
           clip-path="url(#clipPath284)"><g
             id="g292"><path
               inkscape:connector-curvature="0"
               id="path286"
               style="fill:#1a1a1a;fill-opacity:0.29353201;fill-rule:nonzero;stroke:none"
               d="m 185.309,412.559 c -4.727,-0.582 -11.282,-1.817 -16.942,-3.188 -1.851,-0.449 -3.508,-0.851 -3.687,-0.891 -0.414,-0.097 -0.473,-0.542 -0.473,-3.539 0,-1.738 0.035,-2.218 0.152,-2.16 2.215,1.082 4.746,1.793 8.473,2.379 3.453,0.547 4.629,0.613 10.52,0.617 5.164,0 5.984,-0.031 8.078,-0.3 4.609,-0.598 7.082,-1.176 9.379,-2.2 0.671,-0.297 1.242,-0.543 1.269,-0.543 0.027,0 0.047,1.762 0.047,3.911 v 3.91 l -0.887,0.554 c -0.886,0.559 -1.84,0.926 -3.457,1.344 -1.222,0.313 -10.164,0.391 -12.472,0.106 z" /><g
               id="g290"><path
                 inkscape:connector-curvature="0"
                 id="path288"
                 style="fill:none;stroke:#000000;stroke-width:0.243407;stroke-linecap:square;stroke-linejoin:miter;stroke-miterlimit:4;stroke-dasharray:none;stroke-opacity:1"
                 d="m 185.309,412.559 c -4.727,-0.582 -11.282,-1.817 -16.942,-3.188 -1.851,-0.449 -3.508,-0.851 -3.687,-0.891 -0.414,-0.097 -0.473,-0.542 -0.473,-3.539 0,-1.738 0.035,-2.218 0.152,-2.16 2.215,1.082 4.746,1.793 8.473,2.379 3.453,0.547 4.629,0.613 10.52,0.617 5.164,0 5.984,-0.031 8.078,-0.3 4.609,-0.598 7.082,-1.176 9.379,-2.2 0.671,-0.297 1.242,-0.543 1.269,-0.543 0.027,0 0.047,1.762 0.047,3.911 v 3.91 l -0.887,0.554 c -0.886,0.559 -1.84,0.926 -3.457,1.344 -1.222,0.313 -10.164,0.391 -12.472,0.106 z" /></g></g></g></g></g><g
       id="g298"
       transform="translate(-1.4188966,0.15765518)"><g
         id="g300" /><g
         id="g316"><g
           style="opacity:0.98000004"
           id="g314"
           clip-path="url(#clipPath304)"><g
             id="g312"><path
               inkscape:connector-curvature="0"
               id="path306"
               style="fill:#8d8080;fill-opacity:0.29353201;fill-rule:nonzero;stroke:none"
               d="m 179.988,404.621 c -8.34,-0.305 -15.004,-1.945 -16.015,-3.945 -0.161,-0.313 -0.157,-0.391 0.035,-0.715 0.824,-1.395 4.793,-2.695 10.351,-3.387 5.864,-0.734 13.981,-0.621 19.633,0.274 4.942,0.781 8.5,2.277 8.5,3.582 0,0.398 -0.68,1.047 -1.637,1.554 -3.527,1.883 -12.062,2.961 -20.867,2.637 z" /><g
               id="g310"><path
                 inkscape:connector-curvature="0"
                 id="path308"
                 style="fill:none;stroke:#000000;stroke-width:0.243407;stroke-linecap:square;stroke-linejoin:miter;stroke-miterlimit:4;stroke-dasharray:none;stroke-opacity:1"
                 d="m 179.988,404.621 c -8.34,-0.305 -15.004,-1.945 -16.015,-3.945 -0.161,-0.313 -0.157,-0.391 0.035,-0.715 0.824,-1.395 4.793,-2.695 10.351,-3.387 5.864,-0.734 13.981,-0.621 19.633,0.274 4.942,0.781 8.5,2.277 8.5,3.582 0,0.398 -0.68,1.047 -1.637,1.554 -3.527,1.883 -12.062,2.961 -20.867,2.637 z" /></g></g></g></g></g><g
       id="g318"
       transform="translate(-1.4188966,0.15765518)"><path
         inkscape:connector-curvature="0"
         id="path320"
         style="fill:#a9a9a9;fill-opacity:1;fill-rule:evenodd;stroke:#000000;stroke-width:0.36064801;stroke-linecap:butt;stroke-linejoin:miter;stroke-miterlimit:4;stroke-dasharray:none;stroke-opacity:1"
         d="m 192.352,454.367 c 0,0.598 -3.696,1.086 -8.254,1.086 -4.563,0 -8.258,-0.488 -8.258,-1.086 0,-0.597 3.695,-1.086 8.258,-1.086 4.558,0 8.254,0.489 8.254,1.086 z" /></g><g
       id="g322"
       transform="translate(-1.4188966,0.15765518)"><path
         inkscape:connector-curvature="0"
         id="path324"
         style="fill:none;stroke:#000000;stroke-width:0.36064801;stroke-linecap:butt;stroke-linejoin:miter;stroke-miterlimit:4;stroke-dasharray:none;stroke-opacity:1"
         d="m 175.473,454.367 5.136,5.969" /></g><g
       id="g326"
       transform="translate(-1.4188966,0.15765518)"><path
         inkscape:connector-curvature="0"
         id="path328"
         style="fill:none;stroke:#000000;stroke-width:0.36064801;stroke-linecap:butt;stroke-linejoin:miter;stroke-miterlimit:4;stroke-dasharray:none;stroke-opacity:1"
         d="m 192.23,454.504 -4.769,5.695" /></g><g
       id="g330"
       transform="translate(-1.4188966,0.15765518)"><path
         inkscape:connector-curvature="0"
         id="path332"
         style="fill:none;stroke:#000000;stroke-width:0.36064801;stroke-linecap:butt;stroke-linejoin:miter;stroke-miterlimit:4;stroke-dasharray:none;stroke-opacity:1"
         d="m 180.609,460.062 6.973,0.137" /></g><g
       id="g334"
       transform="translate(-1.4188966,0.15765518)"><g
         id="g336" /><g
         id="g350"><g
           style="opacity:0.98000004"
           id="g348"
           clip-path="url(#clipPath340)"><g
             id="g346"><g
               id="g344"><path
                 inkscape:connector-curvature="0"
                 id="path342"
                 style="fill:#999999;fill-opacity:1;fill-rule:nonzero;stroke:#000000;stroke-width:0.243407;stroke-linecap:square;stroke-linejoin:miter;stroke-miterlimit:4;stroke-dasharray:none;stroke-opacity:1"
                 d="m 183.027,459.871 -2.523,-0.039 -2.043,-2.371 c -1.125,-1.305 -2.023,-2.371 -1.992,-2.371 0.027,0 0.625,0.098 1.324,0.215 2.586,0.429 9.551,0.461 12.262,0.054 0.593,-0.089 1.101,-0.136 1.129,-0.105 0.027,0.031 -0.813,1.101 -1.872,2.379 l -1.925,2.32 -0.918,-0.019 c -0.504,-0.012 -2.051,-0.039 -3.442,-0.063 z" /></g></g></g></g></g><g
       id="g352"
       transform="translate(-1.4188966,0.15765518)"><path
         inkscape:connector-curvature="0"
         id="path354"
         style="fill:none;stroke:#000000;stroke-width:0.2115;stroke-linecap:butt;stroke-linejoin:miter;stroke-miterlimit:4;stroke-dasharray:none;stroke-opacity:1"
         d="m 171.168,454.293 c -0.125,9.98 2.176,10.746 4.07,13.156" /></g><path
       inkscape:connector-curvature="0"
       id="path356"
       style="fill:#000000;fill-opacity:1;fill-rule:evenodd;stroke:none"
       d="m 174.4871,467.67366 c 0,0.304 -0.234,0.554 -0.519,0.554 -0.289,0 -0.524,-0.25 -0.524,-0.554 0,-0.305 0.235,-0.555 0.524,-0.555 0.285,0 0.519,0.25 0.519,0.555 z" /><path
       inkscape:connector-curvature="0"
       id="path358"
       style="fill:#ff0000;fill-opacity:1;fill-rule:evenodd;stroke:none"
       d="m 232.633,601.355 c 0,0.075 -0.149,0.133 -0.332,0.133 -0.188,0 -0.336,-0.058 -0.336,-0.133 0,-0.074 0.148,-0.136 0.336,-0.136 0.183,0 0.332,0.062 0.332,0.136 z" /><path
       inkscape:connector-curvature="0"
       id="path360"
       style="fill:#ffffff;fill-opacity:1;fill-rule:nonzero;stroke:none"
       d="m 57.191,449.641 c 0,-1.25 -0.003,-2.407 -0.007,-3.289 0,-0.457 0.316,-0.825 0.711,-0.825 3.043,0.012 11.73,0.047 14.277,0.059 0.394,0 0.715,0.371 0.715,0.824 0.004,2.879 0.015,8.012 0.027,11.235 0.715,1.281 1.434,2.558 2.152,3.839 0.075,0.133 0.118,0.289 0.118,0.45 0,0.105 0,0.214 0,0.316 0,0.344 -0.239,0.617 -0.536,0.617 l -19.156,-0.082 c -0.297,0 -0.535,-0.277 -0.535,-0.621 0,-0.129 -0.004,-0.246 -0.004,-0.391 0,-0.164 0.039,-0.324 0.117,-0.457 0.715,-1.25 1.426,-2.496 2.141,-3.746 -0.004,-1.57 -0.012,-5.004 -0.02,-7.929 z" /><path
       inkscape:connector-curvature="0"
       id="path362"
       style="fill:#ffffff;fill-opacity:1;fill-rule:nonzero;stroke:none"
       d="m 62.352,427.199 c -9.637,0.031 -29.43,0.086 -35.43,0.106 -0.027,6.133 -0.055,13.429 -0.086,20.027 l -0.008,1.656 c 6.875,-0.019 32.106,-0.093 38.774,-0.109 0.027,-6.637 0.066,-16.113 0.089,-21.688 z" /><path
       inkscape:connector-curvature="0"
       id="path364"
       style="fill:#c6c6c6;fill-opacity:1;fill-rule:nonzero;stroke:none"
       d="m 66.816,453.914 c -0.578,-0.957 -1.152,-1.906 -1.543,-2.547 l -37.152,0.094 c -0.758,1.277 -2.344,3.953 -3.199,5.375 l 43.601,-0.113 c -0.414,-0.68 -1.062,-1.75 -1.707,-2.809 z" /><path
       inkscape:connector-curvature="0"
       id="path366"
       style="fill:#ffffff;fill-opacity:1;fill-rule:nonzero;stroke:none"
       d="m 38.359,458.184 c -0.23,0.914 -0.515,2.07 -0.675,2.757 2.988,-0.007 13.515,-0.035 17.039,-0.043 -0.246,-1.097 -0.805,-3.406 -0.95,-3.996 0,0 -0.011,-0.05 -0.035,-0.14 l -15.031,0.039 -0.035,0.14 c -0.059,0.223 -0.176,0.688 -0.313,1.243 z" /><path
       inkscape:connector-curvature="0"
       id="path368"
       style="fill:#211715;fill-opacity:1;fill-rule:nonzero;stroke:none"
       d="m 24.312,433.887 0.032,-6.91 c 0,-0.411 -0.004,-0.786 0.265,-1.137 0.235,-0.301 0.59,-0.504 0.989,-0.567 0.293,-0.027 0.59,-0.035 0.882,-0.019 h 0.829 c 3.011,-0.008 6.019,-0.016 9.031,-0.027 l 11.16,-0.032 10.82,-0.031 7.91,-0.023 c 0.262,-0.016 0.532,-0.012 0.793,0.007 0.391,0.059 0.739,0.25 0.973,0.536 0.219,0.304 0.316,0.664 0.281,1.023 -0.004,0.391 -0.004,0.781 -0.007,1.172 -0.008,1.781 -0.016,3.559 -0.024,5.336 -0.016,4.039 -0.035,8.078 -0.051,12.117 l -0.023,5.496 c -0.027,0.219 -0.02,0.442 0.016,0.66 0.07,0.149 0.16,0.289 0.273,0.418 l 0.344,0.473 c 0.375,0.519 0.75,1.039 1.125,1.555 l 2.34,3.238 1.152,1.601 c 0.187,0.258 0.375,0.52 0.562,0.778 0.211,0.246 0.387,0.511 0.536,0.797 0.082,0.25 0.113,0.511 0.089,0.773 0.028,0.242 0,0.488 -0.07,0.723 -0.144,0.312 -0.469,0.527 -0.844,0.558 -0.164,0.012 -0.34,0 -0.504,0 L 20.5,462.539 c -0.602,0.004 -1.211,0.016 -1.812,0.008 -0.262,0 -0.516,-0.094 -0.7,-0.258 -0.347,-0.309 -0.289,-0.723 -0.289,-1.129 -0.019,-0.254 0.004,-0.512 0.071,-0.762 0.128,-0.285 0.304,-0.554 0.519,-0.796 0.395,-0.532 0.789,-1.059 1.184,-1.59 0.797,-1.071 1.597,-2.145 2.394,-3.215 0.383,-0.516 0.766,-1.031 1.149,-1.547 0.191,-0.258 0.382,-0.516 0.574,-0.773 0.105,-0.145 0.211,-0.286 0.32,-0.43 0.125,-0.141 0.231,-0.293 0.309,-0.461 0.031,-0.172 0.039,-0.352 0.019,-0.524 l 0.004,-0.511 c 0,-0.371 0.004,-0.742 0.004,-1.11 0.004,-0.886 0.008,-1.773 0.012,-2.66 l 0.027,-6.351 c 0.012,-2.18 0.02,-4.364 0.027,-6.543 0.004,-0.625 -1.085,-0.625 -1.085,0.004 -0.024,4.906 -0.043,9.812 -0.063,14.722 l -0.012,2.848 0.075,-0.246 c -1.805,2.433 -3.614,4.867 -5.426,7.297 -0.418,0.558 -0.973,1.133 -1.129,1.804 -0.055,0.309 -0.078,0.622 -0.063,0.934 -0.019,0.305 0.004,0.605 0.071,0.906 0.254,0.805 1.07,1.36 2.008,1.364 0.812,0.011 1.624,-0.004 2.437,-0.004 l 52.25,-0.137 c 0.074,0 0.148,0.004 0.223,0 0.91,-0.008 1.714,-0.535 2,-1.309 0.082,-0.277 0.113,-0.562 0.097,-0.847 0.024,-0.356 -0.007,-0.707 -0.097,-1.051 -0.121,-0.32 -0.297,-0.621 -0.516,-0.899 l -0.687,-0.949 c -0.883,-1.222 -1.766,-2.449 -2.653,-3.672 -0.851,-1.179 -1.703,-2.363 -2.558,-3.543 l 0.074,0.246 c 0.012,-2.812 0.023,-5.625 0.035,-8.441 0.016,-3.051 0.027,-6.102 0.039,-9.152 0.008,-1.391 0.012,-2.782 0.02,-4.176 l 0.007,-1.898 c 0.004,-0.594 0.09,-1.254 -0.086,-1.833 -0.211,-0.687 -0.769,-1.25 -1.507,-1.519 -0.5,-0.18 -1.02,-0.168 -1.551,-0.168 l -2.481,0.008 -6.746,0.019 -8.152,0.024 -8.566,0.023 -7.832,0.024 -6.106,0.015 c -0.641,0.004 -1.254,0.031 -1.82,0.34 -0.68,0.371 -1.133,1 -1.235,1.707 -0.031,0.36 -0.039,0.719 -0.023,1.078 l -0.008,1.156 c -0.004,0.856 -0.008,1.708 -0.012,2.563 -0.004,0.922 -0.007,1.844 -0.011,2.766 0,0.625 1.086,0.625 1.089,-0.004 z" /><path
       inkscape:connector-curvature="0"
       id="path370"
       style="fill:#211715;fill-opacity:1;fill-rule:nonzero;stroke:none"
       d="m 71.602,460.367 -48.821,0.125 c -0.66,0 -1.32,-0.008 -1.98,0.004 -0.031,0 -0.059,0.004 -0.086,0.004 -0.699,0 -0.703,0.973 -0.004,0.973 l 48.82,-0.125 c 0.66,-0.004 1.321,0.007 1.981,-0.008 0.027,0 0.054,0 0.082,0 0.699,0 0.707,-0.977 0.008,-0.973 z" /><path
       inkscape:connector-curvature="0"
       id="path372"
       style="fill:#211715;fill-opacity:1;fill-rule:nonzero;stroke:none"
       d="m 67.289,453.664 c -0.516,-0.848 -1.031,-1.695 -1.547,-2.547 -0.094,-0.148 -0.273,-0.238 -0.465,-0.238 l -32.57,0.082 c -1.504,0.004 -3.012,-0.027 -4.519,0.012 -0.024,0 -0.043,0 -0.063,0 -0.195,0 -0.375,0.093 -0.473,0.242 -1.062,1.793 -2.121,3.586 -3.199,5.375 -0.203,0.324 0.051,0.726 0.469,0.73 l 41.82,-0.105 c 0.567,-0.004 1.137,0.008 1.703,-0.008 0.024,0 0.051,0 0.075,0 0.414,-0.008 0.675,-0.41 0.472,-0.734 -0.566,-0.938 -1.137,-1.871 -1.703,-2.809 -0.332,-0.551 -1.277,-0.055 -0.941,0.492 0.566,0.938 1.136,1.875 1.703,2.813 l 0.472,-0.735 -41.82,0.106 c -0.562,0.004 -1.141,-0.024 -1.703,0.008 -0.027,0 -0.051,0 -0.074,0 l 0.465,0.73 c 1.074,-1.785 2.136,-3.582 3.199,-5.371 l -0.469,0.242 35.629,-0.094 c 0.48,0 0.973,0.024 1.457,-0.003 0.02,0 0.043,0 0.063,0 l -0.469,-0.239 c 0.515,0.848 1.031,1.699 1.547,2.547 0.332,0.551 1.273,0.055 0.941,-0.492 z" /><path
       inkscape:connector-curvature="0"
       id="path374"
       style="fill:#211715;fill-opacity:1;fill-rule:nonzero;stroke:none"
       d="m 38.207,461.066 c 0.309,-1.336 0.648,-2.668 0.988,-3.996 0.075,-0.261 -0.093,-0.523 -0.379,-0.597 -0.289,-0.071 -0.586,0.082 -0.671,0.339 -0.336,1.333 -0.676,2.665 -0.985,4 -0.074,0.258 0.094,0.52 0.379,0.598 0.289,0.067 0.586,-0.086 0.668,-0.344 z" /><path
       inkscape:connector-curvature="0"
       id="path376"
       style="fill:#211715;fill-opacity:1;fill-rule:nonzero;stroke:none"
       d="m 53.25,457.031 c 0.324,1.332 0.648,2.66 0.945,3.996 0.196,0.618 1.235,0.36 1.051,-0.261 -0.297,-1.336 -0.621,-2.664 -0.949,-3.996 -0.078,-0.258 -0.375,-0.415 -0.668,-0.34 -0.289,0.074 -0.461,0.343 -0.379,0.601 z" /><path
       inkscape:connector-curvature="0"
       id="path378"
       style="fill:#211715;fill-opacity:1;fill-rule:nonzero;stroke:none"
       d="m 62.355,426.715 -6.628,0.019 -7.883,0.024 -8.063,0.019 -7.183,0.024 -5.203,0.011 h -0.473 c -0.297,0.008 -0.539,0.223 -0.547,0.489 -0.012,3.14 -0.023,6.277 -0.039,9.418 -0.012,3.277 -0.027,6.554 -0.039,9.832 -0.004,0.812 -0.008,1.625 -0.012,2.437 0.004,0.27 0.242,0.485 0.543,0.489 l 5.871,-0.02 8.363,-0.023 9.329,-0.032 8.515,-0.023 6.184,-0.02 h 0.512 c 0.296,-0.004 0.539,-0.218 0.546,-0.488 l 0.036,-8.652 c 0.011,-2.949 0.023,-5.899 0.035,-8.848 l 0.019,-4.183 c -0.004,-0.27 -0.242,-0.485 -0.543,-0.489 l -3.34,0.012 c -0.699,0 -0.707,0.973 -0.007,0.973 l 3.343,-0.008 -0.543,-0.488 c -0.011,2.632 -0.023,5.265 -0.031,7.894 -0.012,3.02 -0.027,6.039 -0.039,9.059 -0.008,1.578 -0.016,3.156 -0.019,4.734 l 0.546,-0.488 -5.777,0.015 -8.316,0.024 -9.324,0.027 -8.559,0.027 -6.277,0.016 -0.524,0.004 0.543,0.484 c 0.008,-2.222 0.02,-4.441 0.031,-6.66 l 0.039,-9.824 c 0.008,-1.734 0.016,-3.469 0.02,-5.203 l -0.547,0.488 4.918,-0.015 6.996,-0.02 8.016,-0.02 7.961,-0.023 6.808,-0.019 0.735,-0.004 c 0.699,0 0.707,-0.973 0.004,-0.973 z" /><text
       id="text382"
       style="font-variant:normal;font-weight:normal;font-size:5.5px;font-family:'DejaVu Sans';-inkscape-font-specification:DejaVuSans;writing-mode:lr-tb;fill:#000000;fill-opacity:1;fill-rule:nonzero;stroke:none;stroke-width:0.93354946"
       transform="scale(1.0711805,0.93354945)"
       x="37.310207"
       y="465.87592"><tspan
         id="tspan380"
         sodipodi:role="line"
         y="465.87592"
         x="37.310207 41.638706 43.162205 46.649208 50.009708 53.029205 56.395206"
         style="stroke-width:0.93354946">Qibocal</tspan></text>
<path
       inkscape:connector-curvature="0"
       id="path384"
       style="fill:#fdff83;fill-opacity:0.23220999;fill-rule:nonzero;stroke:none"
       d="m 32.363,434.941 -1.574,-1.875 1.574,-1.875" /><g
       transform="scale(0.84,1)"
       id="g386"><path
         inkscape:connector-curvature="0"
         id="path388"
         style="fill:none;stroke:#000000;stroke-width:0.60000002;stroke-linecap:butt;stroke-linejoin:miter;stroke-miterlimit:4;stroke-dasharray:none;stroke-opacity:1"
         d="m 38.528,434.941 -1.874,-1.875 1.874,-1.875" /></g><path
       inkscape:connector-curvature="0"
       id="path390"
       style="fill:#fdff83;fill-opacity:0.23220999;fill-rule:nonzero;stroke:none"
       d="m 37.09,434.941 1.574,-1.875 -1.574,-1.875" /><g
       transform="scale(0.84,1)"
       id="g392"><path
         inkscape:connector-curvature="0"
         id="path394"
         style="fill:none;stroke:#000000;stroke-width:0.60000002;stroke-linecap:butt;stroke-linejoin:miter;stroke-miterlimit:4;stroke-dasharray:none;stroke-opacity:1"
         d="m 44.155,434.941 1.874,-1.875 -1.874,-1.875" /></g><path
       inkscape:connector-curvature="0"
       id="path396"
       style="fill:#fdff83;fill-opacity:0.23220999;fill-rule:nonzero;stroke:none"
       d="m 33.938,434.941 1.574,-3.75" /><g
       transform="scale(0.84,1)"
       id="g398"><path
         inkscape:connector-curvature="0"
         id="path400"
         style="fill:none;stroke:#000000;stroke-width:0.60000002;stroke-linecap:butt;stroke-linejoin:miter;stroke-miterlimit:4;stroke-dasharray:none;stroke-opacity:1"
         d="m 40.402,434.941 1.874,-3.75" /></g><text
       id="text404"
       style="font-variant:normal;font-weight:normal;font-size:5.5px;font-family:'DejaVu Sans';-inkscape-font-specification:DejaVuSans;writing-mode:lr-tb;fill:#000000;fill-opacity:1;fill-rule:nonzero;stroke:none;stroke-width:0.93354946"
       transform="scale(1.0711805,0.93354945)"
       x="37.444695"
       y="476.47253"><tspan
         id="tspan402"
         sodipodi:role="line"
         y="476.47253"
         x="37.444695 41.773193 43.296696 46.783695"
         style="stroke-width:0.93354946">Qibo</tspan></text>
<g
       transform="scale(0.84,1)"
       id="g406"><path
         inkscape:connector-curvature="0"
         id="path408"
         style="fill:none;stroke:#000000;stroke-width:0.60000002;stroke-linecap:butt;stroke-linejoin:miter;stroke-miterlimit:4;stroke-dasharray:none;stroke-opacity:1"
         d="m 38.611,444.984 -1.874,-1.875 1.874,-1.875" /></g><g
       transform="scale(0.84,1)"
       id="g410"><path
         inkscape:connector-curvature="0"
         id="path412"
         style="fill:none;stroke:#000000;stroke-width:0.60000002;stroke-linecap:butt;stroke-linejoin:miter;stroke-miterlimit:4;stroke-dasharray:none;stroke-opacity:1"
         d="m 44.234,444.984 1.878,-1.875 -1.878,-1.875" /></g><g
       transform="scale(0.84,1)"
       id="g414"><path
         inkscape:connector-curvature="0"
         id="path416"
         style="fill:none;stroke:#000000;stroke-width:0.60000002;stroke-linecap:butt;stroke-linejoin:miter;stroke-miterlimit:4;stroke-dasharray:none;stroke-opacity:1"
         d="m 40.485,444.984 1.875,-3.75" /></g><path
       inkscape:connector-curvature="0"
       id="path418"
       style="fill:#4e7bff;fill-opacity:0.16853901;fill-rule:nonzero;stroke:none"
       d="M 28.988,438.613 H 63.75 v 8.695 H 28.988 Z" /><g
       id="g420"><path
         inkscape:connector-curvature="0"
         id="path422"
         style="fill:none;stroke:#000000;stroke-width:0.51975;stroke-linecap:butt;stroke-linejoin:miter;stroke-miterlimit:4;stroke-dasharray:none;stroke-opacity:1"
         d="M 28.988,438.613 H 63.75 v 8.695 H 28.988 Z" /></g><text
       id="text426"
       style="font-variant:normal;font-weight:normal;font-size:5.5px;font-family:'DejaVu Sans';-inkscape-font-specification:DejaVuSans;writing-mode:lr-tb;fill:#000000;fill-opacity:1;fill-rule:nonzero;stroke:none;stroke-width:0.93354946"
       transform="scale(1.0711805,0.93354945)"
       x="105.65034"
       y="475.53915"><tspan
         id="tspan424"
         sodipodi:role="line"
         y="475.53915"
         x="105.65034 109.97884 111.50234 114.98934 118.34984 119.87334 123.23934"
         style="stroke-width:0.93354946">Qibolab</tspan></text>
<g
       id="g428"><path
         inkscape:connector-curvature="0"
         id="path430"
         style="fill:none;stroke:#000000;stroke-width:0.75;stroke-linecap:butt;stroke-linejoin:miter;stroke-miterlimit:4;stroke-dasharray:none;stroke-opacity:1"
         d="m 124.359,455.812 v 7.5" /></g><g
       id="g432"><path
         inkscape:connector-curvature="0"
         id="path434"
         style="fill:none;stroke:#000000;stroke-width:0.75;stroke-linecap:butt;stroke-linejoin:miter;stroke-miterlimit:4;stroke-dasharray:none;stroke-opacity:1"
         d="m 116.035,463.613 h 16.5" /></g><g
       id="g436"><g
         id="g438" /><g
         id="g452"><g
           style="opacity:0.98000004"
           id="g450"
           clip-path="url(#clipPath442)"><g
             id="g448"><g
               id="g446"><path
                 inkscape:connector-curvature="0"
                 id="path444"
                 style="fill:#000000;fill-opacity:1;fill-rule:nonzero;stroke:#000000;stroke-width:0.375;stroke-linecap:square;stroke-linejoin:round;stroke-miterlimit:4;stroke-dasharray:none;stroke-opacity:1"
                 d="m 125.859,463.613 c 0,0.828 -0.671,1.5 -1.5,1.5 -0.828,0 -1.5,-0.672 -1.5,-1.5 0,-0.828 0.672,-1.5 1.5,-1.5 0.829,0 1.5,0.672 1.5,1.5 z" /></g></g></g></g></g><path
       inkscape:connector-curvature="0"
       id="path454"
       style="fill:#000000;fill-opacity:1;fill-rule:nonzero;stroke:none"
       d="m 141.23728,393.354 c -0.058,-1.43 -3.011,-1.817 -4.769,-1.817 -1.758,0 -4.766,0.391 -4.766,1.852 v 9.477 c 0,1.464 2.996,1.859 4.766,1.859 1.769,0 4.769,-0.391 4.769,-1.859 v -9.477 c 0,0 0,-0.031 0,-0.035 z m -0.637,3.172 c -0.105,0.359 -1.609,1.027 -4.132,1.027 -1.18,0.039 -2.36,-0.152 -3.496,-0.57 v 0.871 c 1.144,0.375 2.32,0.554 3.496,0.535 1.273,0 3.156,-0.199 4.132,-0.836 v 2.168 c -0.105,0.359 -1.609,1.027 -4.132,1.027 -1.18,0.035 -2.36,-0.164 -3.496,-0.586 v 0.871 c 1.144,0.375 2.32,0.555 3.496,0.536 1.273,0 3.156,-0.2 4.132,-0.836 v 2.136 c -0.109,0.364 -1.613,1.028 -4.132,1.028 -2.516,0 -4.035,-0.684 -4.133,-1.031 v -9.458 c 0.098,-0.343 1.59,-1.031 4.133,-1.031 2.468,0 3.961,0.641 4.132,0.992 -0.164,0.364 -1.656,1.004 -4.132,1.004 -1.18,0.039 -2.36,-0.156 -3.496,-0.57 v 0.875 c 1.144,0.375 2.32,0.551 3.496,0.531 1.273,0 3.156,-0.199 4.132,-0.836 z" /><path
       inkscape:connector-curvature="0"
       id="path456"
       style="fill:#000000;fill-opacity:1;fill-rule:nonzero;stroke:none"
       d="m 129.98728,393.354 c -0.058,-1.43 -3.011,-1.817 -4.769,-1.817 -1.758,0 -4.766,0.391 -4.766,1.852 v 9.477 c 0,1.464 2.996,1.859 4.766,1.859 1.769,0 4.769,-0.391 4.769,-1.859 v -9.477 c 0,0 0,-0.031 0,-0.035 z m -0.637,3.172 c -0.105,0.359 -1.609,1.027 -4.132,1.027 -1.18,0.039 -2.36,-0.152 -3.496,-0.57 v 0.871 c 1.144,0.375 2.32,0.554 3.496,0.535 1.273,0 3.156,-0.199 4.132,-0.836 v 2.168 c -0.105,0.359 -1.609,1.027 -4.132,1.027 -1.18,0.035 -2.36,-0.164 -3.496,-0.586 v 0.871 c 1.144,0.375 2.32,0.555 3.496,0.536 1.273,0 3.156,-0.2 4.132,-0.836 v 2.136 c -0.109,0.364 -1.613,1.028 -4.132,1.028 -2.516,0 -4.035,-0.684 -4.133,-1.031 v -9.458 c 0.098,-0.343 1.59,-1.031 4.133,-1.031 2.468,0 3.961,0.641 4.132,0.992 -0.164,0.364 -1.656,1.004 -4.132,1.004 -1.18,0.039 -2.36,-0.156 -3.496,-0.57 v 0.875 c 1.144,0.375 2.32,0.551 3.496,0.531 1.273,0 3.156,-0.199 4.132,-0.836 z" /><path
       inkscape:connector-curvature="0"
       id="path458"
       style="fill:#000000;fill-opacity:1;fill-rule:nonzero;stroke:none"
       d="m 118.01528,393.35 c -0.059,-1.43 -3.012,-1.817 -4.77,-1.817 -1.758,0 -4.766,0.391 -4.766,1.852 v 9.477 c 0,1.464 2.997,1.859 4.766,1.859 1.773,0 4.77,-0.391 4.77,-1.859 v -9.477 c 0,0 0,-0.031 0,-0.035 z m -0.637,3.172 c -0.106,0.359 -1.61,1.027 -4.133,1.027 -1.18,0.039 -2.355,-0.152 -3.496,-0.57 v 0.871 c 1.144,0.375 2.32,0.555 3.496,0.535 1.273,0 3.156,-0.199 4.133,-0.836 v 2.168 c -0.106,0.359 -1.61,1.027 -4.133,1.027 -1.18,0.036 -2.359,-0.164 -3.496,-0.586 v 0.872 c 1.144,0.375 2.32,0.554 3.496,0.535 1.273,0 3.156,-0.199 4.133,-0.836 v 2.137 c -0.11,0.363 -1.613,1.027 -4.133,1.027 -2.516,0 -4.035,-0.684 -4.129,-1.031 v -9.457 c 0.094,-0.344 1.586,-1.032 4.129,-1.032 2.473,0 3.961,0.641 4.133,0.993 -0.164,0.363 -1.656,1.003 -4.133,1.003 -1.18,0.039 -2.355,-0.156 -3.496,-0.57 v 0.875 c 1.144,0.375 2.32,0.551 3.496,0.531 1.273,0 3.156,-0.199 4.133,-0.836 z" /><g
       id="g464"><path
         inkscape:connector-curvature="0"
         id="path466"
         style="fill:none;stroke:#000000;stroke-width:0.75;stroke-linecap:butt;stroke-linejoin:miter;stroke-miterlimit:4;stroke-dasharray:none;stroke-opacity:1"
         d="m 72.75,430.773 c 13.41,-4.41 20.441,-0.711 25.691,4.539" /></g><g
       transform="matrix(1,-0.329038,0.329038,1,0,0)"
       id="g468"><path
         inkscape:connector-curvature="0"
         id="path470"
         style="fill:#000000;fill-opacity:1;fill-rule:evenodd;stroke:#000000;stroke-width:0.26715899;stroke-linecap:butt;stroke-linejoin:round;stroke-miterlimit:4;stroke-dasharray:none;stroke-opacity:1"
         d="m -58.526,412.016 -4.67,-1.716 4.671,-1.717 c -0.747,1.012 -0.743,2.4 -0.001,3.433 z" /></g><g
       transform="matrix(-1,-0.999998,0.999998,-1,0,0)"
       id="g472"><path
         inkscape:connector-curvature="0"
         id="path474"
         style="fill:#000000;fill-opacity:1;fill-rule:evenodd;stroke:#000000;stroke-width:0.198874;stroke-linecap:butt;stroke-linejoin:round;stroke-miterlimit:4;stroke-dasharray:none;stroke-opacity:1"
         d="m -264.102,-167.153 -3.478,-1.279 3.476,-1.277 c -0.554,0.754 -0.552,1.787 0.002,2.556 z" /></g><g
       id="g476"><path
         inkscape:connector-curvature="0"
         id="path478"
         style="fill:none;stroke:#000000;stroke-width:0.75;stroke-linecap:butt;stroke-linejoin:miter;stroke-miterlimit:4;stroke-dasharray:none;stroke-opacity:1"
         d="m 61.242,442.852 c 18.137,0.203 25.828,39.543 41.02,17.386" /></g><g
       transform="matrix(-0.685613,1,-1,-0.685613,0,0)"
       id="g480"><path
         inkscape:connector-curvature="0"
         id="path482"
         style="fill:#000000;fill-opacity:1;fill-rule:evenodd;stroke:#000000;stroke-width:0.231966;stroke-linecap:butt;stroke-linejoin:round;stroke-miterlimit:4;stroke-dasharray:none;stroke-opacity:1"
         d="m 268.614,-282.712 -4.055,-1.493 4.056,-1.492 c -0.649,0.882 -0.644,2.086 -0.001,2.985 z" /></g><g
       id="g484"
       transform="matrix(0.87223844,0,0,1,18.78844,0)"><path
         inkscape:connector-curvature="0"
         id="path486"
         style="fill:none;stroke:#000000;stroke-width:0.74629301;stroke-linecap:butt;stroke-linejoin:miter;stroke-miterlimit:4;stroke-dasharray:none;stroke-opacity:1"
         d="m 148.047,442.898 16.394,-0.175" /></g><g
       transform="matrix(0.87223844,-0.0107025,0.00933513,1,18.78844,0)"
       id="g488"><path
         inkscape:connector-curvature="0"
         id="path490"
         style="fill:#000000;fill-opacity:1;fill-rule:evenodd;stroke:#000000;stroke-width:0.27984399;stroke-linecap:butt;stroke-linejoin:round;stroke-miterlimit:4;stroke-dasharray:none;stroke-opacity:1"
         d="m 147.193,446.239 -4.891,-1.798 4.89,-1.799 c -0.781,1.062 -0.777,2.515 0.001,3.597 z" /></g><g
       transform="matrix(-0.87223844,0.0107025,-0.00933513,-1,18.78844,0)"
       id="g492"><path
         inkscape:connector-curvature="0"
         id="path494"
         style="fill:#000000;fill-opacity:1;fill-rule:evenodd;stroke:#000000;stroke-width:0.27984399;stroke-linecap:butt;stroke-linejoin:round;stroke-miterlimit:4;stroke-dasharray:none;stroke-opacity:1"
         d="m -155.778,-442.628 -4.895,-1.799 4.894,-1.799 c -0.781,1.062 -0.777,2.515 0.001,3.598 z" /></g><g
       transform="matrix(-1,-0.00914755,0.00914755,-1,0,0)"
       id="g496" /><g
       id="g500" /><g
       id="g504"
       transform="matrix(1,0,0,1.2568505,0,-109.1535)"><path
         inkscape:connector-curvature="0"
         id="path506"
         style="fill:none;stroke:#000000;stroke-width:0.75;stroke-linecap:butt;stroke-linejoin:miter;stroke-miterlimit:4;stroke-dasharray:none;stroke-opacity:1"
         d="m 125.195,424.969 -0.191,-12.371" /></g><g
       transform="matrix(0.0153238,1.2568505,-1,0.01925973,0,-109.1535)"
       id="g508"><path
         inkscape:connector-curvature="0"
         id="path510"
         style="fill:#000000;fill-opacity:1;fill-rule:evenodd;stroke:#000000;stroke-width:0.28121701;stroke-linecap:butt;stroke-linejoin:round;stroke-miterlimit:4;stroke-dasharray:none;stroke-opacity:1"
         d="m 418.341,-116.839 -4.917,-1.806 4.914,-1.808 c -0.782,1.066 -0.781,2.527 0.003,3.614 z" /></g><g
       id="g512"
       transform="translate(0.7882759,-4.5720002)"><g
         id="g514" /><g
         id="g530"><g
           style="opacity:0.98000004"
           id="g528"
           clip-path="url(#clipPath518)"><g
             id="g526"><path
               inkscape:connector-curvature="0"
               id="path520"
               style="fill:#ffffb5;fill-opacity:0.62645898;fill-rule:nonzero;stroke:none"
               d="m 110.137,408.141 c -0.555,-0.121 -1.176,-0.329 -1.383,-0.465 l -0.375,-0.246 v -9.446 l 0.355,-0.222 c 0.817,-0.512 1.629,-0.653 3.746,-0.645 1.708,0.004 2.297,0.067 2.985,0.313 0.469,0.172 0.879,0.39 0.91,0.488 0.09,0.281 -1.07,0.664 -2.586,0.852 -1.652,0.21 -2.891,0.097 -4.672,-0.422 -0.242,-0.071 -0.277,-0.004 -0.234,0.437 0.043,0.465 0.125,0.543 0.758,0.746 1.156,0.367 4.722,0.313 5.953,-0.093 l 0.984,-0.325 v 2.035 l -0.672,0.297 c -0.797,0.352 -2.379,0.629 -3.586,0.629 -0.812,-0.004 -2.57,-0.308 -3.191,-0.554 -0.231,-0.09 -0.277,-0.02 -0.277,0.441 0,0.539 0.007,0.547 0.988,0.766 1.508,0.332 4.699,0.265 5.832,-0.129 l 0.906,-0.317 v 1 c 0,0.86 -0.051,1.028 -0.355,1.227 -1.071,0.703 -4.387,0.926 -6.305,0.426 l -1.066,-0.278 v 0.512 c 0,0.512 0.007,0.516 1.207,0.781 1.613,0.36 4.492,0.25 5.691,-0.211 l 0.828,-0.32 v 1.004 c 0,0.883 -0.047,1.039 -0.371,1.25 -0.988,0.648 -4.133,0.89 -6.07,0.469 z" /><g
               id="g524"><path
                 inkscape:connector-curvature="0"
                 id="path522"
                 style="fill:none;stroke:#f9ffb8;stroke-width:0.157655;stroke-linecap:square;stroke-linejoin:round;stroke-miterlimit:4;stroke-dasharray:none;stroke-opacity:1"
                 d="m 110.137,408.141 c -0.555,-0.121 -1.176,-0.329 -1.383,-0.465 l -0.375,-0.246 v -9.446 l 0.355,-0.222 c 0.817,-0.512 1.629,-0.653 3.746,-0.645 1.708,0.004 2.297,0.067 2.985,0.313 0.469,0.172 0.879,0.39 0.91,0.488 0.09,0.281 -1.07,0.664 -2.586,0.852 -1.652,0.21 -2.891,0.097 -4.672,-0.422 -0.242,-0.071 -0.277,-0.004 -0.234,0.437 0.043,0.465 0.125,0.543 0.758,0.746 1.156,0.367 4.722,0.313 5.953,-0.093 l 0.984,-0.325 v 2.035 l -0.672,0.297 c -0.797,0.352 -2.379,0.629 -3.586,0.629 -0.812,-0.004 -2.57,-0.308 -3.191,-0.554 -0.231,-0.09 -0.277,-0.02 -0.277,0.441 0,0.539 0.007,0.547 0.988,0.766 1.508,0.332 4.699,0.265 5.832,-0.129 l 0.906,-0.317 v 1 c 0,0.86 -0.051,1.028 -0.355,1.227 -1.071,0.703 -4.387,0.926 -6.305,0.426 l -1.066,-0.278 v 0.512 c 0,0.512 0.007,0.516 1.207,0.781 1.613,0.36 4.492,0.25 5.691,-0.211 l 0.828,-0.32 v 1.004 c 0,0.883 -0.047,1.039 -0.371,1.25 -0.988,0.648 -4.133,0.89 -6.07,0.469 z" /></g></g></g></g></g><g
       id="g532"
       transform="translate(0.7882759,-4.5720002)"><g
         id="g534" /><g
         id="g550"><g
           style="opacity:0.98000004"
           id="g548"
           clip-path="url(#clipPath538)"><g
             id="g546"><path
               inkscape:connector-curvature="0"
               id="path540"
               style="fill:#ffffb5;fill-opacity:0.62645898;fill-rule:nonzero;stroke:none"
               d="m 122.277,408.215 c -0.379,-0.074 -0.945,-0.262 -1.261,-0.418 l -0.575,-0.281 -0.043,-4.711 c -0.027,-3.231 0.012,-4.778 0.129,-4.918 0.098,-0.114 0.539,-0.336 0.989,-0.492 1.187,-0.415 4.722,-0.391 5.929,0.039 0.473,0.168 0.883,0.386 0.914,0.484 0.094,0.293 -1.148,0.684 -2.765,0.871 -1.254,0.141 -1.766,0.129 -2.867,-0.066 -0.739,-0.133 -1.465,-0.293 -1.618,-0.352 -0.23,-0.094 -0.273,-0.023 -0.273,0.434 0,0.543 0.008,0.55 0.984,0.765 1.496,0.332 4.532,0.262 5.754,-0.136 l 0.985,-0.321 v 2.035 l -0.672,0.297 c -0.797,0.352 -2.379,0.629 -3.582,0.625 -0.813,0 -2.575,-0.304 -3.196,-0.55 -0.23,-0.09 -0.273,-0.02 -0.273,0.445 0,0.535 0.023,0.558 0.824,0.765 0.508,0.129 1.656,0.211 2.957,0.204 1.723,-0.008 2.301,-0.071 3.035,-0.329 l 0.907,-0.324 v 0.996 c 0,0.864 -0.047,1.032 -0.356,1.231 -1.015,0.668 -4.219,0.926 -6.027,0.488 -1.301,-0.312 -1.34,-0.308 -1.34,0.223 0,0.445 0.035,0.469 1.203,0.73 1.613,0.36 4.492,0.25 5.691,-0.211 l 0.829,-0.32 v 1.004 c 0,0.871 -0.047,1.039 -0.356,1.238 -0.93,0.61 -4.121,0.906 -5.926,0.551 z" /><g
               id="g544"><path
                 inkscape:connector-curvature="0"
                 id="path542"
                 style="fill:none;stroke:#f9ffb8;stroke-width:0.157655;stroke-linecap:square;stroke-linejoin:round;stroke-miterlimit:4;stroke-dasharray:none;stroke-opacity:1"
                 d="m 122.277,408.215 c -0.379,-0.074 -0.945,-0.262 -1.261,-0.418 l -0.575,-0.281 -0.043,-4.711 c -0.027,-3.231 0.012,-4.778 0.129,-4.918 0.098,-0.114 0.539,-0.336 0.989,-0.492 1.187,-0.415 4.722,-0.391 5.929,0.039 0.473,0.168 0.883,0.386 0.914,0.484 0.094,0.293 -1.148,0.684 -2.765,0.871 -1.254,0.141 -1.766,0.129 -2.867,-0.066 -0.739,-0.133 -1.465,-0.293 -1.618,-0.352 -0.23,-0.094 -0.273,-0.023 -0.273,0.434 0,0.543 0.008,0.55 0.984,0.765 1.496,0.332 4.532,0.262 5.754,-0.136 l 0.985,-0.321 v 2.035 l -0.672,0.297 c -0.797,0.352 -2.379,0.629 -3.582,0.625 -0.813,0 -2.575,-0.304 -3.196,-0.55 -0.23,-0.09 -0.273,-0.02 -0.273,0.445 0,0.535 0.023,0.558 0.824,0.765 0.508,0.129 1.656,0.211 2.957,0.204 1.723,-0.008 2.301,-0.071 3.035,-0.329 l 0.907,-0.324 v 0.996 c 0,0.864 -0.047,1.032 -0.356,1.231 -1.015,0.668 -4.219,0.926 -6.027,0.488 -1.301,-0.312 -1.34,-0.308 -1.34,0.223 0,0.445 0.035,0.469 1.203,0.73 1.613,0.36 4.492,0.25 5.691,-0.211 l 0.829,-0.32 v 1.004 c 0,0.871 -0.047,1.039 -0.356,1.238 -0.93,0.61 -4.121,0.906 -5.926,0.551 z" /></g></g></g></g></g><g
       id="g552"
       transform="translate(0.7882759,-4.5720002)"><g
         id="g554" /><g
         id="g570"><g
           style="opacity:0.98000004"
           id="g568"
           clip-path="url(#clipPath558)"><g
             id="g566"><path
               inkscape:connector-curvature="0"
               id="path560"
               style="fill:#ffffb5;fill-opacity:0.62645898;fill-rule:nonzero;stroke:none"
               d="m 133.309,408.148 c -0.551,-0.125 -1.172,-0.336 -1.379,-0.472 l -0.375,-0.246 v -9.446 l 0.371,-0.242 c 0.703,-0.461 2.582,-0.746 4.359,-0.664 1.649,0.078 3.137,0.461 3.266,0.84 0.09,0.273 -1.121,0.687 -2.539,0.867 -1.391,0.176 -2.887,0.074 -4.024,-0.269 -0.398,-0.121 -0.742,-0.219 -0.761,-0.223 -0.024,0 -0.043,0.242 -0.043,0.539 0,0.52 0.027,0.543 0.828,0.719 2,0.441 4.871,0.328 6.234,-0.242 l 0.52,-0.219 -0.047,1.058 c -0.043,1.04 -0.055,1.067 -0.602,1.332 -1.273,0.625 -4.484,0.739 -6.183,0.223 l -0.75,-0.226 v 0.519 c 0,0.496 0.043,0.531 0.828,0.734 1.332,0.34 4.718,0.27 5.836,-0.128 l 0.906,-0.321 v 0.981 c 0,0.629 -0.078,1.047 -0.211,1.156 -0.852,0.707 -4.309,1.047 -6.07,0.594 -1.297,-0.332 -1.289,-0.332 -1.289,0.211 0,0.398 0.086,0.488 0.593,0.644 0.325,0.102 1.407,0.215 2.403,0.258 1.699,0.074 2.824,-0.063 4.218,-0.504 0.34,-0.109 0.356,-0.078 0.356,0.832 0,1.059 -0.082,1.168 -1.117,1.551 -0.981,0.355 -4.028,0.441 -5.328,0.144 z" /><g
               id="g564"><path
                 inkscape:connector-curvature="0"
                 id="path562"
                 style="fill:none;stroke:#f9ffb8;stroke-width:0.157655;stroke-linecap:square;stroke-linejoin:round;stroke-miterlimit:4;stroke-dasharray:none;stroke-opacity:1"
                 d="m 133.309,408.148 c -0.551,-0.125 -1.172,-0.336 -1.379,-0.472 l -0.375,-0.246 v -9.446 l 0.371,-0.242 c 0.703,-0.461 2.582,-0.746 4.359,-0.664 1.649,0.078 3.137,0.461 3.266,0.84 0.09,0.273 -1.121,0.687 -2.539,0.867 -1.391,0.176 -2.887,0.074 -4.024,-0.269 -0.398,-0.121 -0.742,-0.219 -0.761,-0.223 -0.024,0 -0.043,0.242 -0.043,0.539 0,0.52 0.027,0.543 0.828,0.719 2,0.441 4.871,0.328 6.234,-0.242 l 0.52,-0.219 -0.047,1.058 c -0.043,1.04 -0.055,1.067 -0.602,1.332 -1.273,0.625 -4.484,0.739 -6.183,0.223 l -0.75,-0.226 v 0.519 c 0,0.496 0.043,0.531 0.828,0.734 1.332,0.34 4.718,0.27 5.836,-0.128 l 0.906,-0.321 v 0.981 c 0,0.629 -0.078,1.047 -0.211,1.156 -0.852,0.707 -4.309,1.047 -6.07,0.594 -1.297,-0.332 -1.289,-0.332 -1.289,0.211 0,0.398 0.086,0.488 0.593,0.644 0.325,0.102 1.407,0.215 2.403,0.258 1.699,0.074 2.824,-0.063 4.218,-0.504 0.34,-0.109 0.356,-0.078 0.356,0.832 0,1.059 -0.082,1.168 -1.117,1.551 -0.981,0.355 -4.028,0.441 -5.328,0.144 z" /></g></g></g></g></g><path
       inkscape:connector-curvature="0"
       id="path572"
       style="fill:#fdff83;fill-opacity:0.23220999;fill-rule:nonzero;stroke:none"
       d="M 28.988,428.871 H 63.75 v 8.695 H 28.988 Z" /><g
       id="g574"><path
         inkscape:connector-curvature="0"
         id="path576"
         style="fill:none;stroke:#000000;stroke-width:0.51975;stroke-linecap:butt;stroke-linejoin:miter;stroke-miterlimit:4;stroke-dasharray:none;stroke-opacity:1"
         d="M 28.988,428.871 H 63.75 v 8.695 H 28.988 Z" /></g><text
       id="text582"
       style="font-variant:normal;font-weight:normal;font-size:5px;line-height:1;font-family:'DejaVu Sans';-inkscape-font-specification:DejaVuSans;writing-mode:lr-tb;fill:#000000;fill-opacity:1;fill-rule:nonzero;stroke:none"
       x="86.997681"
       y="416.96841"><tspan
         id="tspan578"
         sodipodi:role="line"
         style="font-size:5px;line-height:1"
         x="86.997681"
         y="416.96841">Execute </tspan><tspan
         sodipodi:role="line"
         style="font-size:5px;line-height:1"
         x="86.997681"
         y="421.96841"
         id="tspan84458">calibration</tspan><tspan
         sodipodi:role="line"
         style="font-size:5px;line-height:1"
         x="86.997681"
         y="426.96841"
         id="tspan84456">routines</tspan><tspan
         sodipodi:role="line"
         id="tspan84454"
         x="86.997681"
         y="431.96841"
         style="font-size:5px;line-height:1" /><tspan
         id="tspan580"
         sodipodi:role="line"
         x="86.997681"
         y="436.96841" /></text>
<text
       id="text596"
       style="font-variant:normal;font-weight:normal;font-size:5.5px;font-family:'DejaVu Sans';-inkscape-font-specification:DejaVuSans;writing-mode:lr-tb;fill:#000000;fill-opacity:1;fill-rule:nonzero;stroke:none;stroke-width:0.93354946"
       transform="scale(1.0711805,0.93354947)"
       x="163.74315"
       y="430.84143"><tspan
         id="tspan594"
         sodipodi:role="line"
         y="430.84143"
         x="163.74315 168.07164 171.38814"
         style="stroke-width:0.93354946">QPU</tspan></text>
<text
       id="text582-3"
       style="font-variant:normal;font-weight:normal;font-size:5px;line-height:1;font-family:'DejaVu Sans';-inkscape-font-specification:DejaVuSans;writing-mode:lr-tb;fill:#000000;fill-opacity:1;fill-rule:nonzero;stroke:none;stroke-width:0.99999994"
       x="42.495537"
       y="394.40451"><tspan
         sodipodi:role="line"
         style="font-size:5px;line-height:1;stroke-width:0.99999994"
         x="42.495537"
         y="394.40451"
         id="tspan84456-5">Storage of platform</tspan><tspan
         sodipodi:role="line"
         style="font-size:5px;line-height:1;stroke-width:0.99999994"
         x="42.495537"
         y="399.40451"
         id="tspan84494">calibration parameters</tspan><tspan
         sodipodi:role="line"
         id="tspan84454-3"
         x="42.495537"
         y="404.40451"
         style="font-size:5px;line-height:1;stroke-width:0.99999994" /><tspan
         style="stroke-width:0.99999994"
         id="tspan580-5"
         sodipodi:role="line"
         x="42.495537"
         y="409.40451" /></text>
<path
       style="fill:none;stroke:#000000;stroke-width:0.75px;stroke-linecap:butt;stroke-linejoin:miter;stroke-opacity:1;marker-end:url(#Arrow1Mend)"
       d="m 53.445106,430.25205 c 3.522852,-8.31306 12.054091,-25.3237 43.039865,-26.01309"
       id="path84496"
       inkscape:connector-curvature="0"
       sodipodi:nodetypes="cc" /><text
       id="text582-3-6"
       style="font-variant:normal;font-weight:normal;font-size:5px;line-height:1;font-family:'DejaVu Sans';-inkscape-font-specification:DejaVuSans;writing-mode:lr-tb;fill:#000000;fill-opacity:1;fill-rule:nonzero;stroke:none;stroke-width:0.99999994"
       x="62.739868"
       y="473.90552"><tspan
         sodipodi:role="line"
         style="font-size:5px;line-height:1;stroke-width:0.99999994"
         x="62.739868"
         y="473.90552"
         id="tspan84494-9">Execute algorithms </tspan><tspan
         sodipodi:role="line"
         style="font-size:5px;line-height:1;stroke-width:0.99999994"
         x="62.739868"
         y="478.90552"
         id="tspan86423">on calibrated devices</tspan><tspan
         sodipodi:role="line"
         id="tspan84454-3-1"
         x="62.739868"
         y="483.90552"
         style="font-size:5px;line-height:1;stroke-width:0.99999994" /><tspan
         style="stroke-width:0.99999994"
         id="tspan580-5-2"
         sodipodi:role="line"
         x="62.739868"
         y="488.90552" /></text>
<text
       id="text582-3-7"
       style="font-variant:normal;font-weight:normal;font-size:5px;line-height:1;font-family:'DejaVu Sans';-inkscape-font-specification:DejaVuSans;writing-mode:lr-tb;fill:#000000;fill-opacity:1;fill-rule:nonzero;stroke:none;stroke-width:0.99999994"
       x="71.726212"
       y="437.64484"><tspan
         sodipodi:role="line"
         style="font-size:5px;line-height:1;stroke-width:0.99999994"
         x="71.726212"
         y="437.64484"
         id="tspan84494-93">Collect </tspan><tspan
         sodipodi:role="line"
         style="font-size:5px;line-height:1;stroke-width:0.99999994"
         x="71.726212"
         y="442.64484"
         id="tspan86441">results</tspan><tspan
         sodipodi:role="line"
         id="tspan84454-3-6"
         x="71.726212"
         y="447.64484"
         style="font-size:5px;line-height:1;stroke-width:0.99999994" /><tspan
         style="stroke-width:0.99999994"
         id="tspan580-5-0"
         sodipodi:role="line"
         x="71.726212"
         y="452.64484" /></text>
</g></svg>